<svg width="40" height="40" viewBox="0 0 40 40" fill="none" xmlns="http://www.w3.org/2000/svg">
<path fill-rule="evenodd" clip-rule="evenodd" d="M20 34.6875C17.4172 32.6562 8.75 25.1953 8.75 16.25C8.75 13.2663 9.93526 10.4048 12.045 8.29505C14.1548 6.18526 17.0163 5 20 5C22.9837 5 25.8452 6.18526 27.955 8.29505C30.0647 10.4048 31.25 13.2663 31.25 16.25C31.25 25.1922 22.5828 32.6562 20 34.6875ZM16.5277 11.0533C17.5555 10.3666 18.7639 10 20 10C21.6576 10 23.2473 10.6585 24.4194 11.8306C25.5915 13.0027 26.25 14.5924 26.25 16.25C26.25 17.4861 25.8834 18.6945 25.1967 19.7223C24.5099 20.7501 23.5338 21.5512 22.3918 22.0242C21.2497 22.4973 19.9931 22.6211 18.7807 22.3799C17.5683 22.1388 16.4547 21.5435 15.5806 20.6694C14.7065 19.7953 14.1112 18.6817 13.8701 17.4693C13.6289 16.2569 13.7527 15.0003 14.2258 13.8582C14.6988 12.7162 15.4999 11.7401 16.5277 11.0533Z" fill="#79C9DD"/>
<path fill-rule="evenodd" clip-rule="evenodd" d="M20 10C18.7639 10 17.5555 10.3666 16.5277 11.0533C15.4999 11.7401 14.6988 12.7162 14.2258 13.8582C13.7527 15.0003 13.6289 16.2569 13.8701 17.4693C14.1112 18.6817 14.7065 19.7953 15.5806 20.6694C16.4547 21.5435 17.5683 22.1388 18.7807 22.3799C19.9931 22.6211 21.2497 22.4973 22.3918 22.0242C23.5338 21.5512 24.5099 20.7501 25.1967 19.7223C25.8834 18.6945 26.25 17.4861 26.25 16.25C26.25 14.5924 25.5915 13.0027 24.4194 11.8306C23.2473 10.6585 21.6576 10 20 10ZM17.9166 19.368C18.5333 19.7801 19.2583 20 20 20C20.9946 20 21.9484 19.6049 22.6517 18.9017C23.3549 18.1984 23.75 17.2446 23.75 16.25C23.75 15.5083 23.5301 14.7833 23.118 14.1666C22.706 13.5499 22.1203 13.0693 21.4351 12.7855C20.7498 12.5016 19.9958 12.4274 19.2684 12.5721C18.541 12.7167 17.8728 13.0739 17.3483 13.5983C16.8239 14.1228 16.4667 14.791 16.3221 15.5184C16.1774 16.2458 16.2516 16.9998 16.5355 17.6851C16.8193 18.3703 17.2999 18.956 17.9166 19.368Z" fill="#79C9DD"/>
</svg>
