<svg width="41" height="41" viewBox="0 0 41 41" fill="none" xmlns="http://www.w3.org/2000/svg">
<path d="M35.614 25.3783L28.069 21.9974L28.0482 21.9878C27.6565 21.8202 27.2292 21.753 26.805 21.7922C26.3808 21.8313 25.973 21.9756 25.6186 22.212C25.5769 22.2396 25.5368 22.2695 25.4985 22.3017L21.6003 25.6249C19.1307 24.4253 16.581 21.8949 15.3814 19.4573L18.7095 15.4998C18.7415 15.4598 18.7719 15.4198 18.8008 15.3765C19.0321 15.0231 19.1724 14.6179 19.2093 14.1971C19.2462 13.7763 19.1785 13.3529 19.0122 12.9646V12.9453L15.6217 5.38758C15.4018 4.8803 15.0238 4.45773 14.5441 4.18294C14.0644 3.90815 13.5086 3.79588 12.9599 3.86289C10.7897 4.14846 8.79768 5.21424 7.35588 6.86117C5.91408 8.5081 5.12109 10.6235 5.12501 12.8124C5.12501 25.5288 15.4711 35.8749 28.1875 35.8749C30.3764 35.8788 32.4918 35.0858 34.1388 33.644C35.7857 32.2022 36.8515 30.2102 37.137 28.0401C37.2042 27.4915 37.0921 26.9359 36.8176 26.4562C36.5432 25.9765 36.1209 25.5984 35.614 25.3783ZM28.1875 33.3124C22.7524 33.3065 17.5416 31.1448 13.6984 27.3016C9.85517 23.4583 7.69345 18.2475 7.68751 12.8124C7.68149 11.2485 8.24494 9.73581 9.27264 8.55692C10.3003 7.37803 11.722 6.61352 13.2722 6.40617C13.2715 6.41256 13.2715 6.419 13.2722 6.42539L16.6354 13.9527L13.325 17.915C13.2914 17.9537 13.2609 17.9949 13.2337 18.0383C12.9927 18.4081 12.8513 18.834 12.8233 19.2745C12.7952 19.715 12.8814 20.1554 13.0736 20.5528C14.5246 23.5205 17.5147 26.4882 20.5144 27.9376C20.9148 28.1279 21.3576 28.2112 21.7998 28.1792C22.2419 28.1472 22.6681 28.001 23.0369 27.755C23.078 27.7273 23.1176 27.6974 23.1554 27.6653L27.0488 24.3437L34.5761 27.715C34.5761 27.715 34.589 27.715 34.5938 27.715C34.3889 29.2673 33.6256 30.6918 32.4465 31.7221C31.2674 32.7523 29.7533 33.3177 28.1875 33.3124Z" fill="#79C9DD"/>
<path d="M28.1875 33.3124C22.7524 33.3065 17.5416 31.1448 13.6984 27.3016C9.85517 23.4583 7.69345 18.2475 7.68751 12.8124C7.68149 11.2485 8.24494 9.73581 9.27264 8.55692C10.3003 7.37803 11.722 6.61352 13.2722 6.40617C13.2715 6.41256 13.2715 6.419 13.2722 6.42539L16.6354 13.9527L13.325 17.915C13.2914 17.9537 13.2609 17.9949 13.2337 18.0383C12.9927 18.4081 12.8513 18.834 12.8233 19.2745C12.7952 19.715 12.8814 20.1554 13.0736 20.5528C14.5246 23.5205 17.5147 26.4882 20.5144 27.9376C20.9148 28.1279 21.3576 28.2112 21.7998 28.1792C22.2419 28.1472 22.6681 28.001 23.0369 27.755C23.078 27.7273 23.1176 27.6974 23.1554 27.6653L27.0488 24.3437L34.5761 27.715H34.5938C34.3889 29.2673 33.6256 30.6918 32.4465 31.7221C31.2674 32.7523 29.7533 33.3177 28.1875 33.3124Z" fill="#79C9DD"/>
</svg>
