<svg width="32" height="32" viewBox="0 0 32 32" fill="none" xmlns="http://www.w3.org/2000/svg">
<path fill-rule="evenodd" clip-rule="evenodd" d="M16 27.75C13.9338 26.125 7 20.1562 7 13C7 10.6131 7.94821 8.32387 9.63604 6.63604C11.3239 4.94821 13.6131 4 16 4C18.3869 4 20.6761 4.94821 22.364 6.63604C24.0518 8.32387 25 10.6131 25 13C25 20.1537 18.0662 26.125 16 27.75ZM13.2221 8.84265C14.0444 8.29325 15.0111 8 16 8C17.3261 8 18.5979 8.52678 19.5355 9.46447C20.4732 10.4021 21 11.6739 21 13C21 13.9889 20.7068 14.9556 20.1573 15.7779C19.6079 16.6001 18.827 17.241 17.9134 17.6194C16.9998 17.9978 15.9945 18.0969 15.0245 17.9039C14.0546 17.711 13.1637 17.2348 12.4645 16.5355C11.7652 15.8363 11.289 14.9454 11.0961 13.9755C10.9031 13.0055 11.0022 12.0002 11.3806 11.0866C11.759 10.173 12.3999 9.39206 13.2221 8.84265Z" fill="url(#paint0_linear_12_18)"/>
<path fill-rule="evenodd" clip-rule="evenodd" d="M16 8C15.0111 8 14.0444 8.29325 13.2221 8.84265C12.3999 9.39206 11.759 10.173 11.3806 11.0866C11.0022 12.0002 10.9031 13.0055 11.0961 13.9755C11.289 14.9454 11.7652 15.8363 12.4645 16.5355C13.1637 17.2348 14.0546 17.711 15.0245 17.9039C15.9945 18.0969 16.9998 17.9978 17.9134 17.6194C18.827 17.241 19.6079 16.6001 20.1573 15.7779C20.7068 14.9556 21 13.9889 21 13C21 11.6739 20.4732 10.4021 19.5355 9.46447C18.5979 8.52678 17.3261 8 16 8ZM14.3333 15.4944C14.8266 15.8241 15.4067 16 16 16C16.7956 16 17.5587 15.6839 18.1213 15.1213C18.6839 14.5587 19 13.7956 19 13C19 12.4067 18.8241 11.8266 18.4944 11.3333C18.1648 10.8399 17.6962 10.4554 17.1481 10.2284C16.5999 10.0013 15.9967 9.94189 15.4147 10.0576C14.8328 10.1734 14.2982 10.4591 13.8787 10.8787C13.4591 11.2982 13.1734 11.8328 13.0576 12.4147C12.9419 12.9967 13.0013 13.5999 13.2284 14.1481C13.4554 14.6962 13.8399 15.1648 14.3333 15.4944Z" fill="url(#paint1_linear_12_18)"/>
<defs>
<linearGradient id="paint0_linear_12_18" x1="5" y1="35.7997" x2="35.4507" y2="5.40744" gradientUnits="userSpaceOnUse">
<stop stop-color="#79C9DD"/>
<stop offset="1" stop-color="#4EAAFF"/>
</linearGradient>
<linearGradient id="paint1_linear_12_18" x1="5" y1="35.7997" x2="35.4507" y2="5.40744" gradientUnits="userSpaceOnUse">
<stop stop-color="#79C9DD"/>
<stop offset="1" stop-color="#4EAAFF"/>
</linearGradient>
</defs>
</svg>
