<svg width="335" height="55" viewBox="0 0 335 55" fill="none" xmlns="http://www.w3.org/2000/svg">
<path d="M78.8389 23.9928C77.6656 23.9928 76.6189 23.7462 75.6989 23.2528C74.7922 22.7595 74.0522 22.0595 73.4789 21.1528C72.9056 20.2462 72.5456 19.1728 72.3989 17.9328H70.2389V23.8928H67.4789V9.69282H70.2389V15.5328H72.4189C72.5789 14.2795 72.9522 13.2128 73.5389 12.3328C74.1389 11.4528 74.8989 10.7795 75.8189 10.3128C76.7389 9.83282 77.7656 9.59282 78.8989 9.59282C80.2189 9.59282 81.3656 9.89949 82.3389 10.5128C83.3256 11.1128 84.0922 11.9595 84.6389 13.0528C85.1989 14.1328 85.4789 15.3928 85.4789 16.8328C85.4789 18.3795 85.1922 19.6862 84.6189 20.7528C84.0456 21.8062 83.2589 22.6128 82.2589 23.1728C81.2722 23.7195 80.1322 23.9928 78.8389 23.9928ZM78.8789 21.5528C79.6922 21.5528 80.3789 21.3528 80.9389 20.9528C81.5122 20.5395 81.9456 19.9728 82.2389 19.2528C82.5322 18.5328 82.6789 17.7128 82.6789 16.7928C82.6789 15.8062 82.5256 14.9662 82.2189 14.2728C81.9122 13.5662 81.4722 13.0195 80.8989 12.6328C80.3256 12.2462 79.6456 12.0528 78.8589 12.0528C78.0589 12.0528 77.3789 12.2528 76.8189 12.6528C76.2589 13.0528 75.8322 13.6128 75.5389 14.3328C75.2456 15.0395 75.0989 15.8595 75.0989 16.7928C75.0989 17.7662 75.2456 18.6128 75.5389 19.3328C75.8456 20.0395 76.2789 20.5862 76.8389 20.9728C77.4122 21.3595 78.0922 21.5528 78.8789 21.5528ZM92.7184 24.0928C91.9051 24.0928 91.1851 23.9128 90.5584 23.5528C89.9451 23.1795 89.4651 22.6795 89.1184 22.0528V28.1528H86.4384V13.4128H88.7784V15.2128C89.1784 14.5995 89.6851 14.1195 90.2984 13.7728C90.9118 13.4128 91.6118 13.2328 92.3984 13.2328C93.1051 13.2328 93.7518 13.3728 94.3384 13.6528C94.9384 13.9328 95.4584 14.3262 95.8984 14.8328C96.3384 15.3262 96.6784 15.8995 96.9184 16.5528C97.1718 17.1928 97.2984 17.8862 97.2984 18.6328C97.2984 19.6462 97.0984 20.5662 96.6984 21.3928C96.3118 22.2195 95.7718 22.8795 95.0784 23.3728C94.3984 23.8528 93.6118 24.0928 92.7184 24.0928ZM91.8184 21.8128C92.2318 21.8128 92.6051 21.7262 92.9384 21.5528C93.2718 21.3795 93.5584 21.1462 93.7984 20.8528C94.0518 20.5462 94.2384 20.2062 94.3584 19.8328C94.4918 19.4462 94.5584 19.0462 94.5584 18.6328C94.5584 18.1928 94.4851 17.7862 94.3384 17.4128C94.2051 17.0395 94.0051 16.7128 93.7384 16.4328C93.4718 16.1395 93.1584 15.9128 92.7984 15.7528C92.4518 15.5928 92.0718 15.5128 91.6584 15.5128C91.4051 15.5128 91.1451 15.5595 90.8784 15.6528C90.6251 15.7328 90.3784 15.8528 90.1384 16.0128C89.8984 16.1728 89.6851 16.3595 89.4984 16.5728C89.3251 16.7862 89.1984 17.0195 89.1184 17.2728V19.7328C89.2784 20.1195 89.4918 20.4728 89.7584 20.7928C90.0384 21.1128 90.3584 21.3662 90.7184 21.5528C91.0784 21.7262 91.4451 21.8128 91.8184 21.8128ZM98.3142 23.8928V13.4328H100.994V20.3128L105.694 13.4128H108.134V23.8928H105.454V17.1728L100.814 23.8928H98.3142ZM108.92 26.4328V21.5528H109.2C109.467 21.5528 109.713 21.4795 109.94 21.3328C110.18 21.1862 110.387 20.9395 110.56 20.5928C110.747 20.2328 110.893 19.7395 111 19.1128C111.12 18.4862 111.2 17.6862 111.24 16.7128L111.36 13.4128H119.22V21.5528H120.68V26.4328H118.34V23.8928H111.28V26.4328H108.92ZM112.58 21.5528H116.54V15.6728H113.7L113.64 16.9728C113.6 17.8528 113.533 18.5995 113.44 19.2128C113.36 19.8128 113.247 20.3062 113.1 20.6928C112.967 21.0662 112.793 21.3528 112.58 21.5528ZM121.617 23.8928V13.4328H124.297V20.3128L128.997 13.4128H131.437V23.8928H128.757V17.1728L124.117 23.8928H121.617ZM138.922 23.8928V20.1328C138.522 20.3062 138.116 20.4328 137.702 20.5128C137.302 20.5928 136.842 20.6328 136.322 20.6328C135.216 20.6328 134.349 20.3395 133.722 19.7528C133.096 19.1528 132.782 18.2795 132.782 17.1328V13.4128H135.462V16.7728C135.462 17.3995 135.596 17.8595 135.862 18.1528C136.142 18.4462 136.569 18.5928 137.142 18.5928C137.462 18.5928 137.782 18.5595 138.102 18.4928C138.422 18.4262 138.696 18.3328 138.922 18.2128V13.4128H141.622V23.8928H138.922ZM148.119 24.0928C147.279 24.0928 146.519 23.9528 145.839 23.6728C145.159 23.3795 144.579 22.9862 144.099 22.4928C143.619 21.9862 143.245 21.4128 142.979 20.7728C142.725 20.1195 142.599 19.4328 142.599 18.7128C142.599 17.7128 142.819 16.7995 143.259 15.9728C143.712 15.1462 144.352 14.4862 145.179 13.9928C146.019 13.4862 147.005 13.2328 148.139 13.2328C149.285 13.2328 150.265 13.4862 151.079 13.9928C151.892 14.4862 152.512 15.1462 152.939 15.9728C153.379 16.7862 153.599 17.6662 153.599 18.6128C153.599 18.7728 153.592 18.9395 153.579 19.1128C153.565 19.2728 153.552 19.4062 153.539 19.5128H145.439C145.492 20.0462 145.645 20.5128 145.899 20.9128C146.165 21.3128 146.499 21.6195 146.899 21.8328C147.312 22.0328 147.752 22.1328 148.219 22.1328C148.752 22.1328 149.252 22.0062 149.719 21.7528C150.199 21.4862 150.525 21.1395 150.699 20.7128L152.999 21.3528C152.745 21.8862 152.379 22.3595 151.899 22.7728C151.432 23.1862 150.879 23.5128 150.239 23.7528C149.599 23.9795 148.892 24.0928 148.119 24.0928ZM145.379 17.8128H150.859C150.805 17.2795 150.652 16.8195 150.399 16.4328C150.159 16.0328 149.839 15.7262 149.439 15.5128C149.039 15.2862 148.592 15.1728 148.099 15.1728C147.619 15.1728 147.179 15.2862 146.779 15.5128C146.392 15.7262 146.072 16.0328 145.819 16.4328C145.579 16.8195 145.432 17.2795 145.379 17.8128ZM159.311 24.0928C158.458 24.0928 157.691 23.9528 157.011 23.6728C156.331 23.3795 155.751 22.9795 155.271 22.4728C154.791 21.9528 154.418 21.3662 154.151 20.7128C153.898 20.0595 153.771 19.3728 153.771 18.6528C153.771 17.6662 153.991 16.7662 154.431 15.9528C154.885 15.1262 155.525 14.4662 156.351 13.9728C157.178 13.4795 158.158 13.2328 159.291 13.2328C160.425 13.2328 161.398 13.4795 162.211 13.9728C163.025 14.4662 163.631 15.1128 164.031 15.9128L161.411 16.7128C161.185 16.3262 160.885 16.0328 160.511 15.8328C160.138 15.6195 159.725 15.5128 159.271 15.5128C158.765 15.5128 158.298 15.6462 157.871 15.9128C157.458 16.1662 157.131 16.5328 156.891 17.0128C156.651 17.4795 156.531 18.0262 156.531 18.6528C156.531 19.2662 156.651 19.8128 156.891 20.2928C157.145 20.7595 157.478 21.1328 157.891 21.4128C158.305 21.6795 158.765 21.8128 159.271 21.8128C159.591 21.8128 159.891 21.7595 160.171 21.6528C160.465 21.5462 160.725 21.3995 160.951 21.2128C161.178 21.0262 161.345 20.8128 161.451 20.5728L164.071 21.3728C163.831 21.8928 163.478 22.3595 163.011 22.7728C162.558 23.1862 162.018 23.5128 161.391 23.7528C160.778 23.9795 160.085 24.0928 159.311 24.0928ZM164.92 23.8928V13.4128H167.6V17.3728H168.5L171.34 13.4128H174.26L170.54 18.4728L174.66 23.8928H171.6L168.46 19.7328H167.6V23.8928H164.92ZM179.82 24.0928C178.967 24.0928 178.2 23.9528 177.52 23.6728C176.84 23.3795 176.26 22.9795 175.78 22.4728C175.313 21.9662 174.953 21.3862 174.7 20.7328C174.447 20.0795 174.32 19.3928 174.32 18.6728C174.32 17.9395 174.447 17.2462 174.7 16.5928C174.953 15.9395 175.313 15.3595 175.78 14.8528C176.26 14.3462 176.84 13.9528 177.52 13.6728C178.2 13.3795 178.967 13.2328 179.82 13.2328C180.673 13.2328 181.433 13.3795 182.1 13.6728C182.78 13.9528 183.36 14.3462 183.84 14.8528C184.32 15.3595 184.68 15.9395 184.92 16.5928C185.173 17.2462 185.3 17.9395 185.3 18.6728C185.3 19.3928 185.173 20.0795 184.92 20.7328C184.68 21.3862 184.32 21.9662 183.84 22.4728C183.373 22.9795 182.8 23.3795 182.12 23.6728C181.44 23.9528 180.673 24.0928 179.82 24.0928ZM177.08 18.6728C177.08 19.2862 177.2 19.8328 177.44 20.3128C177.68 20.7795 178.007 21.1462 178.42 21.4128C178.833 21.6795 179.3 21.8128 179.82 21.8128C180.327 21.8128 180.787 21.6795 181.2 21.4128C181.613 21.1328 181.94 20.7595 182.18 20.2928C182.433 19.8128 182.56 19.2662 182.56 18.6528C182.56 18.0528 182.433 17.5128 182.18 17.0328C181.94 16.5528 181.613 16.1795 181.2 15.9128C180.787 15.6462 180.327 15.5128 179.82 15.5128C179.3 15.5128 178.833 15.6528 178.42 15.9328C178.007 16.1995 177.68 16.5728 177.44 17.0528C177.2 17.5195 177.08 18.0595 177.08 18.6728ZM191.169 24.0928C190.329 24.0928 189.569 23.9528 188.889 23.6728C188.209 23.3795 187.629 22.9862 187.149 22.4928C186.669 21.9862 186.295 21.4128 186.029 20.7728C185.775 20.1195 185.649 19.4328 185.649 18.7128C185.649 17.7128 185.869 16.7995 186.309 15.9728C186.762 15.1462 187.402 14.4862 188.229 13.9928C189.069 13.4862 190.055 13.2328 191.189 13.2328C192.335 13.2328 193.315 13.4862 194.129 13.9928C194.942 14.4862 195.562 15.1462 195.989 15.9728C196.429 16.7862 196.649 17.6662 196.649 18.6128C196.649 18.7728 196.642 18.9395 196.629 19.1128C196.615 19.2728 196.602 19.4062 196.589 19.5128H188.489C188.542 20.0462 188.695 20.5128 188.949 20.9128C189.215 21.3128 189.549 21.6195 189.949 21.8328C190.362 22.0328 190.802 22.1328 191.269 22.1328C191.802 22.1328 192.302 22.0062 192.769 21.7528C193.249 21.4862 193.575 21.1395 193.749 20.7128L196.049 21.3528C195.795 21.8862 195.429 22.3595 194.949 22.7728C194.482 23.1862 193.929 23.5128 193.289 23.7528C192.649 23.9795 191.942 24.0928 191.169 24.0928ZM188.429 17.8128H193.909C193.855 17.2795 193.702 16.8195 193.449 16.4328C193.209 16.0328 192.889 15.7262 192.489 15.5128C192.089 15.2862 191.642 15.1728 191.149 15.1728C190.669 15.1728 190.229 15.2862 189.829 15.5128C189.442 15.7262 189.122 16.0328 188.869 16.4328C188.629 16.8195 188.482 17.2795 188.429 17.8128ZM200.766 20.7928C200.766 20.1128 200.953 19.5195 201.326 19.0128C201.713 18.4928 202.246 18.0928 202.926 17.8128C203.606 17.5328 204.386 17.3928 205.266 17.3928C205.706 17.3928 206.153 17.4262 206.606 17.4928C207.059 17.5595 207.453 17.6662 207.786 17.8128V17.2528C207.786 16.5862 207.586 16.0728 207.186 15.7128C206.799 15.3528 206.219 15.1728 205.446 15.1728C204.873 15.1728 204.326 15.2728 203.806 15.4728C203.286 15.6728 202.739 15.9662 202.166 16.3528L201.306 14.5928C201.999 14.1395 202.706 13.7995 203.426 13.5728C204.159 13.3462 204.926 13.2328 205.726 13.2328C207.219 13.2328 208.379 13.6062 209.206 14.3528C210.046 15.0995 210.466 16.1662 210.466 17.5528V20.8928C210.466 21.1728 210.513 21.3728 210.606 21.4928C210.713 21.6128 210.879 21.6862 211.106 21.7128V23.8928C210.866 23.9328 210.646 23.9662 210.446 23.9928C210.259 24.0195 210.099 24.0328 209.966 24.0328C209.433 24.0328 209.026 23.9128 208.746 23.6728C208.479 23.4328 208.313 23.1395 208.246 22.7928L208.186 22.2528C207.733 22.8395 207.166 23.2928 206.486 23.6128C205.806 23.9328 205.113 24.0928 204.406 24.0928C203.713 24.0928 203.086 23.9528 202.526 23.6728C201.979 23.3795 201.546 22.9862 201.226 22.4928C200.919 21.9862 200.766 21.4195 200.766 20.7928ZM207.286 21.3328C207.433 21.1728 207.553 21.0128 207.646 20.8528C207.739 20.6928 207.786 20.5462 207.786 20.4128V19.3528C207.466 19.2195 207.119 19.1195 206.746 19.0528C206.373 18.9728 206.019 18.9328 205.686 18.9328C204.993 18.9328 204.419 19.0862 203.966 19.3928C203.526 19.6862 203.306 20.0795 203.306 20.5728C203.306 20.8395 203.379 21.0928 203.526 21.3328C203.673 21.5728 203.886 21.7662 204.166 21.9128C204.446 22.0595 204.779 22.1328 205.166 22.1328C205.566 22.1328 205.959 22.0595 206.346 21.9128C206.733 21.7528 207.046 21.5595 207.286 21.3328ZM212.17 23.8928V13.4128H219.11V15.7528H214.85V23.8928H212.17ZM224.707 24.0928C223.867 24.0928 223.107 23.9528 222.427 23.6728C221.747 23.3795 221.167 22.9862 220.687 22.4928C220.207 21.9862 219.834 21.4128 219.567 20.7728C219.314 20.1195 219.187 19.4328 219.187 18.7128C219.187 17.7128 219.407 16.7995 219.847 15.9728C220.3 15.1462 220.94 14.4862 221.767 13.9928C222.607 13.4862 223.594 13.2328 224.727 13.2328C225.874 13.2328 226.854 13.4862 227.667 13.9928C228.48 14.4862 229.1 15.1462 229.527 15.9728C229.967 16.7862 230.187 17.6662 230.187 18.6128C230.187 18.7728 230.18 18.9395 230.167 19.1128C230.154 19.2728 230.14 19.4062 230.127 19.5128H222.027C222.08 20.0462 222.234 20.5128 222.487 20.9128C222.754 21.3128 223.087 21.6195 223.487 21.8328C223.9 22.0328 224.34 22.1328 224.807 22.1328C225.34 22.1328 225.84 22.0062 226.307 21.7528C226.787 21.4862 227.114 21.1395 227.287 20.7128L229.587 21.3528C229.334 21.8862 228.967 22.3595 228.487 22.7728C228.02 23.1862 227.467 23.5128 226.827 23.7528C226.187 23.9795 225.48 24.0928 224.707 24.0928ZM221.967 17.8128H227.447C227.394 17.2795 227.24 16.8195 226.987 16.4328C226.747 16.0328 226.427 15.7262 226.027 15.5128C225.627 15.2862 225.18 15.1728 224.687 15.1728C224.207 15.1728 223.767 15.2862 223.367 15.5128C222.98 15.7262 222.66 16.0328 222.407 16.4328C222.167 16.8195 222.02 17.2795 221.967 17.8128ZM231.02 23.8928V13.4128H233.7V17.4128H237.94V13.4128H240.62V23.8928H237.94V19.6528H233.7V23.8928H231.02ZM244.69 23.8928V15.7528H241.37V13.4128H250.71V15.7528H247.37V23.8928H244.69ZM256.292 24.0928C255.439 24.0928 254.672 23.9528 253.992 23.6728C253.312 23.3795 252.732 22.9795 252.252 22.4728C251.772 21.9528 251.399 21.3662 251.132 20.7128C250.879 20.0595 250.752 19.3728 250.752 18.6528C250.752 17.6662 250.972 16.7662 251.412 15.9528C251.865 15.1262 252.505 14.4662 253.332 13.9728C254.159 13.4795 255.139 13.2328 256.272 13.2328C257.405 13.2328 258.379 13.4795 259.192 13.9728C260.005 14.4662 260.612 15.1128 261.012 15.9128L258.392 16.7128C258.165 16.3262 257.865 16.0328 257.492 15.8328C257.119 15.6195 256.705 15.5128 256.252 15.5128C255.745 15.5128 255.279 15.6462 254.852 15.9128C254.439 16.1662 254.112 16.5328 253.872 17.0128C253.632 17.4795 253.512 18.0262 253.512 18.6528C253.512 19.2662 253.632 19.8128 253.872 20.2928C254.125 20.7595 254.459 21.1328 254.872 21.4128C255.285 21.6795 255.745 21.8128 256.252 21.8128C256.572 21.8128 256.872 21.7595 257.152 21.6528C257.445 21.5462 257.705 21.3995 257.932 21.2128C258.159 21.0262 258.325 20.8128 258.432 20.5728L261.052 21.3728C260.812 21.8928 260.459 22.3595 259.992 22.7728C259.539 23.1862 258.999 23.5128 258.372 23.7528C257.759 23.9795 257.065 24.0928 256.292 24.0928ZM264.321 23.8928V15.7528H261.001V13.4128H270.341V15.7528H267.001V23.8928H264.321ZM271.042 23.8928V13.4128H276.882C277.602 13.4128 278.182 13.5328 278.622 13.7728C279.076 14.0128 279.409 14.3262 279.622 14.7128C279.836 15.0995 279.942 15.5128 279.942 15.9528C279.942 16.5395 279.809 17.0528 279.542 17.4928C279.289 17.9328 278.889 18.2728 278.342 18.5128C278.956 18.6862 279.456 18.9862 279.842 19.4128C280.229 19.8262 280.422 20.3728 280.422 21.0528C280.422 21.7062 280.269 22.2462 279.962 22.6728C279.656 23.0862 279.216 23.3928 278.642 23.5928C278.069 23.7928 277.389 23.8928 276.602 23.8928H271.042ZM273.582 22.0728H276.522C276.762 22.0728 276.982 22.0128 277.182 21.8928C277.382 21.7728 277.536 21.6128 277.642 21.4128C277.762 21.2128 277.822 20.9928 277.822 20.7528C277.822 20.4995 277.769 20.2795 277.662 20.0928C277.556 19.8928 277.402 19.7395 277.202 19.6328C277.016 19.5128 276.796 19.4528 276.542 19.4528H273.582V22.0728ZM273.582 17.7728H276.202C276.442 17.7728 276.656 17.7128 276.842 17.5928C277.029 17.4728 277.169 17.3128 277.262 17.1128C277.369 16.9128 277.422 16.6928 277.422 16.4528C277.422 16.1062 277.309 15.8195 277.082 15.5928C276.869 15.3528 276.582 15.2328 276.222 15.2328H273.582V17.7728ZM286.41 24.0928C285.557 24.0928 284.79 23.9528 284.11 23.6728C283.43 23.3795 282.85 22.9795 282.37 22.4728C281.904 21.9662 281.544 21.3862 281.29 20.7328C281.037 20.0795 280.91 19.3928 280.91 18.6728C280.91 17.9395 281.037 17.2462 281.29 16.5928C281.544 15.9395 281.904 15.3595 282.37 14.8528C282.85 14.3462 283.43 13.9528 284.11 13.6728C284.79 13.3795 285.557 13.2328 286.41 13.2328C287.264 13.2328 288.024 13.3795 288.69 13.6728C289.37 13.9528 289.95 14.3462 290.43 14.8528C290.91 15.3595 291.27 15.9395 291.51 16.5928C291.764 17.2462 291.89 17.9395 291.89 18.6728C291.89 19.3928 291.764 20.0795 291.51 20.7328C291.27 21.3862 290.91 21.9662 290.43 22.4728C289.964 22.9795 289.39 23.3795 288.71 23.6728C288.03 23.9528 287.264 24.0928 286.41 24.0928ZM283.67 18.6728C283.67 19.2862 283.79 19.8328 284.03 20.3128C284.27 20.7795 284.597 21.1462 285.01 21.4128C285.424 21.6795 285.89 21.8128 286.41 21.8128C286.917 21.8128 287.377 21.6795 287.79 21.4128C288.204 21.1328 288.53 20.7595 288.77 20.2928C289.024 19.8128 289.15 19.2662 289.15 18.6528C289.15 18.0528 289.024 17.5128 288.77 17.0328C288.53 16.5528 288.204 16.1795 287.79 15.9128C287.377 15.6462 286.917 15.5128 286.41 15.5128C285.89 15.5128 285.424 15.6528 285.01 15.9328C284.597 16.1995 284.27 16.5728 284.03 17.0528C283.79 17.5195 283.67 18.0595 283.67 18.6728ZM66.6989 40.1328L71.9789 36.3528V38.5328L68.8389 40.7128L71.9789 42.7728V44.9728L66.6989 41.4328V40.1328ZM72.5389 40.1328L77.7989 36.3528V38.5328L74.6589 40.7128L77.7989 42.7728V44.9728L72.5389 41.4328V40.1328ZM83.5272 31.6928H86.3272L91.5472 45.8928H88.7072L87.3872 42.3528H82.4272L81.1272 45.8928H78.2872L83.5272 31.6928ZM86.8872 40.4128L84.9272 34.5528L82.8872 40.4128H86.8872ZM92.0447 45.8928V35.4128H94.7247V39.3728H95.6247L98.4647 35.4128H101.385L97.6647 40.4728L101.785 45.8928H98.7247L95.5847 41.7328H94.7247V45.8928H92.0447ZM105.071 45.8928V37.7528H101.751V35.4128H111.091V37.7528H107.751V45.8928H105.071ZM111.792 45.8928V35.4328H114.472V42.3128L119.172 35.4128H121.612V45.8928H118.932V39.1728L114.292 45.8928H111.792ZM123.258 45.8928V35.4128H129.098C129.818 35.4128 130.398 35.5328 130.838 35.7728C131.291 36.0128 131.625 36.3262 131.838 36.7128C132.051 37.0995 132.158 37.5128 132.158 37.9528C132.158 38.5395 132.025 39.0528 131.758 39.4928C131.505 39.9328 131.105 40.2728 130.558 40.5128C131.171 40.6862 131.671 40.9862 132.058 41.4128C132.445 41.8262 132.638 42.3728 132.638 43.0528C132.638 43.7062 132.485 44.2462 132.178 44.6728C131.871 45.0862 131.431 45.3928 130.858 45.5928C130.285 45.7928 129.605 45.8928 128.818 45.8928H123.258ZM125.798 44.0728H128.738C128.978 44.0728 129.198 44.0128 129.398 43.8928C129.598 43.7728 129.751 43.6128 129.858 43.4128C129.978 43.2128 130.038 42.9928 130.038 42.7528C130.038 42.4995 129.985 42.2795 129.878 42.0928C129.771 41.8928 129.618 41.7395 129.418 41.6328C129.231 41.5128 129.011 41.4528 128.758 41.4528H125.798V44.0728ZM125.798 39.7728H128.418C128.658 39.7728 128.871 39.7128 129.058 39.5928C129.245 39.4728 129.385 39.3128 129.478 39.1128C129.585 38.9128 129.638 38.6928 129.638 38.4528C129.638 38.1062 129.525 37.8195 129.298 37.5928C129.085 37.3528 128.798 37.2328 128.438 37.2328H125.798V39.7728ZM137.791 45.8928V35.4128H147.191V45.8928H144.511V37.7528H140.471V45.8928H137.791ZM155.107 46.0928C154.293 46.0928 153.573 45.9128 152.947 45.5528C152.333 45.1795 151.853 44.6795 151.507 44.0528V50.1528H148.827V35.4128H151.167V37.2128C151.567 36.5995 152.073 36.1195 152.687 35.7728C153.3 35.4128 154 35.2328 154.787 35.2328C155.493 35.2328 156.14 35.3728 156.727 35.6528C157.327 35.9328 157.847 36.3262 158.287 36.8328C158.727 37.3262 159.067 37.8995 159.307 38.5528C159.56 39.1928 159.687 39.8862 159.687 40.6328C159.687 41.6462 159.487 42.5662 159.087 43.3928C158.7 44.2195 158.16 44.8795 157.467 45.3728C156.787 45.8528 156 46.0928 155.107 46.0928ZM154.207 43.8128C154.62 43.8128 154.993 43.7262 155.327 43.5528C155.66 43.3795 155.947 43.1462 156.187 42.8528C156.44 42.5462 156.627 42.2062 156.747 41.8328C156.88 41.4462 156.947 41.0462 156.947 40.6328C156.947 40.1928 156.873 39.7862 156.727 39.4128C156.593 39.0395 156.393 38.7128 156.127 38.4328C155.86 38.1395 155.547 37.9128 155.187 37.7528C154.84 37.5928 154.46 37.5128 154.047 37.5128C153.793 37.5128 153.533 37.5595 153.267 37.6528C153.013 37.7328 152.767 37.8528 152.527 38.0128C152.287 38.1728 152.073 38.3595 151.887 38.5728C151.713 38.7862 151.587 39.0195 151.507 39.2728V41.7328C151.667 42.1195 151.88 42.4728 152.147 42.7928C152.427 43.1128 152.747 43.3662 153.107 43.5528C153.467 43.7262 153.833 43.8128 154.207 43.8128ZM159.982 42.7928C159.982 42.1128 160.169 41.5195 160.542 41.0128C160.929 40.4928 161.462 40.0928 162.142 39.8128C162.822 39.5328 163.602 39.3928 164.482 39.3928C164.922 39.3928 165.369 39.4262 165.822 39.4928C166.276 39.5595 166.669 39.6662 167.002 39.8128V39.2528C167.002 38.5862 166.802 38.0728 166.402 37.7128C166.016 37.3528 165.436 37.1728 164.662 37.1728C164.089 37.1728 163.542 37.2728 163.022 37.4728C162.502 37.6728 161.956 37.9662 161.382 38.3528L160.522 36.5928C161.216 36.1395 161.922 35.7995 162.642 35.5728C163.376 35.3462 164.142 35.2328 164.942 35.2328C166.436 35.2328 167.596 35.6062 168.422 36.3528C169.262 37.0995 169.682 38.1662 169.682 39.5528V42.8928C169.682 43.1728 169.729 43.3728 169.822 43.4928C169.929 43.6128 170.096 43.6862 170.322 43.7128V45.8928C170.082 45.9328 169.862 45.9662 169.662 45.9928C169.476 46.0195 169.316 46.0328 169.182 46.0328C168.649 46.0328 168.242 45.9128 167.962 45.6728C167.696 45.4328 167.529 45.1395 167.462 44.7928L167.402 44.2528C166.949 44.8395 166.382 45.2928 165.702 45.6128C165.022 45.9328 164.329 46.0928 163.622 46.0928C162.929 46.0928 162.302 45.9528 161.742 45.6728C161.196 45.3795 160.762 44.9862 160.442 44.4928C160.136 43.9862 159.982 43.4195 159.982 42.7928ZM166.502 43.3328C166.649 43.1728 166.769 43.0128 166.862 42.8528C166.956 42.6928 167.002 42.5462 167.002 42.4128V41.3528C166.682 41.2195 166.336 41.1195 165.962 41.0528C165.589 40.9728 165.236 40.9328 164.902 40.9328C164.209 40.9328 163.636 41.0862 163.182 41.3928C162.742 41.6862 162.522 42.0795 162.522 42.5728C162.522 42.8395 162.596 43.0928 162.742 43.3328C162.889 43.5728 163.102 43.7662 163.382 43.9128C163.662 44.0595 163.996 44.1328 164.382 44.1328C164.782 44.1328 165.176 44.0595 165.562 43.9128C165.949 43.7528 166.262 43.5595 166.502 43.3328ZM171.387 45.8928V35.4128H177.227C177.947 35.4128 178.527 35.5328 178.967 35.7728C179.42 36.0128 179.754 36.3262 179.967 36.7128C180.18 37.0995 180.287 37.5128 180.287 37.9528C180.287 38.5395 180.154 39.0528 179.887 39.4928C179.634 39.9328 179.234 40.2728 178.687 40.5128C179.3 40.6862 179.8 40.9862 180.187 41.4128C180.574 41.8262 180.767 42.3728 180.767 43.0528C180.767 43.7062 180.614 44.2462 180.307 44.6728C180 45.0862 179.56 45.3928 178.987 45.5928C178.414 45.7928 177.734 45.8928 176.947 45.8928H171.387ZM173.927 44.0728H176.867C177.107 44.0728 177.327 44.0128 177.527 43.8928C177.727 43.7728 177.88 43.6128 177.987 43.4128C178.107 43.2128 178.167 42.9928 178.167 42.7528C178.167 42.4995 178.114 42.2795 178.007 42.0928C177.9 41.8928 177.747 41.7395 177.547 41.6328C177.36 41.5128 177.14 41.4528 176.887 41.4528H173.927V44.0728ZM173.927 39.7728H176.547C176.787 39.7728 177 39.7128 177.187 39.5928C177.374 39.4728 177.514 39.3128 177.607 39.1128C177.714 38.9128 177.767 38.6928 177.767 38.4528C177.767 38.1062 177.654 37.8195 177.427 37.5928C177.214 37.3528 176.927 37.2328 176.567 37.2328H173.927V39.7728ZM186.755 46.0928C185.902 46.0928 185.135 45.9528 184.455 45.6728C183.775 45.3795 183.195 44.9795 182.715 44.4728C182.248 43.9662 181.888 43.3862 181.635 42.7328C181.382 42.0795 181.255 41.3928 181.255 40.6728C181.255 39.9395 181.382 39.2462 181.635 38.5928C181.888 37.9395 182.248 37.3595 182.715 36.8528C183.195 36.3462 183.775 35.9528 184.455 35.6728C185.135 35.3795 185.902 35.2328 186.755 35.2328C187.608 35.2328 188.368 35.3795 189.035 35.6728C189.715 35.9528 190.295 36.3462 190.775 36.8528C191.255 37.3595 191.615 37.9395 191.855 38.5928C192.108 39.2462 192.235 39.9395 192.235 40.6728C192.235 41.3928 192.108 42.0795 191.855 42.7328C191.615 43.3862 191.255 43.9662 190.775 44.4728C190.308 44.9795 189.735 45.3795 189.055 45.6728C188.375 45.9528 187.608 46.0928 186.755 46.0928ZM184.015 40.6728C184.015 41.2862 184.135 41.8328 184.375 42.3128C184.615 42.7795 184.942 43.1462 185.355 43.4128C185.768 43.6795 186.235 43.8128 186.755 43.8128C187.262 43.8128 187.722 43.6795 188.135 43.4128C188.548 43.1328 188.875 42.7595 189.115 42.2928C189.368 41.8128 189.495 41.2662 189.495 40.6528C189.495 40.0528 189.368 39.5128 189.115 39.0328C188.875 38.5528 188.548 38.1795 188.135 37.9128C187.722 37.6462 187.262 37.5128 186.755 37.5128C186.235 37.5128 185.768 37.6528 185.355 37.9328C184.942 38.1995 184.615 38.5728 184.375 39.0528C184.135 39.5195 184.015 40.0595 184.015 40.6728ZM193.244 45.8928V35.4128H199.084C199.804 35.4128 200.384 35.5328 200.824 35.7728C201.277 36.0128 201.611 36.3262 201.824 36.7128C202.037 37.0995 202.144 37.5128 202.144 37.9528C202.144 38.5395 202.011 39.0528 201.744 39.4928C201.491 39.9328 201.091 40.2728 200.544 40.5128C201.157 40.6862 201.657 40.9862 202.044 41.4128C202.431 41.8262 202.624 42.3728 202.624 43.0528C202.624 43.7062 202.471 44.2462 202.164 44.6728C201.857 45.0862 201.417 45.3928 200.844 45.5928C200.271 45.7928 199.591 45.8928 198.804 45.8928H193.244ZM195.784 44.0728H198.724C198.964 44.0728 199.184 44.0128 199.384 43.8928C199.584 43.7728 199.737 43.6128 199.844 43.4128C199.964 43.2128 200.024 42.9928 200.024 42.7528C200.024 42.4995 199.971 42.2795 199.864 42.0928C199.757 41.8928 199.604 41.7395 199.404 41.6328C199.217 41.5128 198.997 41.4528 198.744 41.4528H195.784V44.0728ZM195.784 39.7728H198.404C198.644 39.7728 198.857 39.7128 199.044 39.5928C199.231 39.4728 199.371 39.3128 199.464 39.1128C199.571 38.9128 199.624 38.6928 199.624 38.4528C199.624 38.1062 199.511 37.8195 199.284 37.5928C199.071 37.3528 198.784 37.2328 198.424 37.2328H195.784V39.7728ZM203.772 45.8928V35.4128H206.452V38.7128H208.292C209.559 38.7128 210.525 39.0328 211.192 39.6728C211.859 40.3128 212.192 41.1595 212.192 42.2128C212.192 42.9195 212.045 43.5528 211.752 44.1128C211.472 44.6728 211.059 45.1128 210.512 45.4328C209.965 45.7395 209.285 45.8928 208.472 45.8928H203.772ZM206.452 43.8528H208.052C208.425 43.8528 208.725 43.7795 208.952 43.6328C209.179 43.4862 209.345 43.2928 209.452 43.0528C209.572 42.8128 209.632 42.5395 209.632 42.2328C209.632 41.9395 209.579 41.6795 209.472 41.4528C209.365 41.2128 209.192 41.0262 208.952 40.8928C208.725 40.7462 208.419 40.6728 208.032 40.6728H206.452V43.8528ZM213.832 45.8928V35.4328H216.512V45.8928H213.832ZM219.887 35.4128L222.087 38.6928L222.247 39.0528L222.447 38.6928L224.627 35.4128H227.447L223.807 40.6328L227.507 45.8928H224.687L222.427 42.6328L222.247 42.2928L222.087 42.6328L219.847 45.8928H217.027L220.727 40.6928L217.087 35.4128H219.887ZM238.277 46.0928C237.464 46.0928 236.744 45.9128 236.117 45.5528C235.504 45.1795 235.024 44.6795 234.677 44.0528V50.1528H231.997V35.4128H234.337V37.2128C234.737 36.5995 235.244 36.1195 235.857 35.7728C236.47 35.4128 237.17 35.2328 237.957 35.2328C238.664 35.2328 239.31 35.3728 239.897 35.6528C240.497 35.9328 241.017 36.3262 241.457 36.8328C241.897 37.3262 242.237 37.8995 242.477 38.5528C242.73 39.1928 242.857 39.8862 242.857 40.6328C242.857 41.6462 242.657 42.5662 242.257 43.3928C241.87 44.2195 241.33 44.8795 240.637 45.3728C239.957 45.8528 239.17 46.0928 238.277 46.0928ZM237.377 43.8128C237.79 43.8128 238.164 43.7262 238.497 43.5528C238.83 43.3795 239.117 43.1462 239.357 42.8528C239.61 42.5462 239.797 42.2062 239.917 41.8328C240.05 41.4462 240.117 41.0462 240.117 40.6328C240.117 40.1928 240.044 39.7862 239.897 39.4128C239.764 39.0395 239.564 38.7128 239.297 38.4328C239.03 38.1395 238.717 37.9128 238.357 37.7528C238.01 37.5928 237.63 37.5128 237.217 37.5128C236.964 37.5128 236.704 37.5595 236.437 37.6528C236.184 37.7328 235.937 37.8528 235.697 38.0128C235.457 38.1728 235.244 38.3595 235.057 38.5728C234.884 38.7862 234.757 39.0195 234.677 39.2728V41.7328C234.837 42.1195 235.05 42.4728 235.317 42.7928C235.597 43.1128 235.917 43.3662 236.277 43.5528C236.637 43.7262 237.004 43.8128 237.377 43.8128ZM248.733 46.0928C247.893 46.0928 247.133 45.9528 246.453 45.6728C245.773 45.3795 245.193 44.9862 244.713 44.4928C244.233 43.9862 243.859 43.4128 243.593 42.7728C243.339 42.1195 243.213 41.4328 243.213 40.7128C243.213 39.7128 243.433 38.7995 243.873 37.9728C244.326 37.1462 244.966 36.4862 245.793 35.9928C246.633 35.4862 247.619 35.2328 248.753 35.2328C249.899 35.2328 250.879 35.4862 251.693 35.9928C252.506 36.4862 253.126 37.1462 253.553 37.9728C253.993 38.7862 254.213 39.6662 254.213 40.6128C254.213 40.7728 254.206 40.9395 254.193 41.1128C254.179 41.2728 254.166 41.4062 254.153 41.5128H246.053C246.106 42.0462 246.259 42.5128 246.513 42.9128C246.779 43.3128 247.113 43.6195 247.513 43.8328C247.926 44.0328 248.366 44.1328 248.833 44.1328C249.366 44.1328 249.866 44.0062 250.333 43.7528C250.813 43.4862 251.139 43.1395 251.313 42.7128L253.613 43.3528C253.359 43.8862 252.993 44.3595 252.513 44.7728C252.046 45.1862 251.493 45.5128 250.853 45.7528C250.213 45.9795 249.506 46.0928 248.733 46.0928ZM245.993 39.8128H251.473C251.419 39.2795 251.266 38.8195 251.013 38.4328C250.773 38.0328 250.453 37.7262 250.053 37.5128C249.653 37.2862 249.206 37.1728 248.713 37.1728C248.233 37.1728 247.793 37.2862 247.393 37.5128C247.006 37.7262 246.686 38.0328 246.433 38.4328C246.193 38.8195 246.046 39.2795 245.993 39.8128ZM255.045 45.8928V35.4128H257.725V43.5528H261.065V35.4128H263.765V43.5528H267.085V35.4128H269.765V45.8928H255.045ZM276.273 46.0928C275.433 46.0928 274.673 45.9528 273.993 45.6728C273.313 45.3795 272.733 44.9862 272.253 44.4928C271.773 43.9862 271.4 43.4128 271.133 42.7728C270.88 42.1195 270.753 41.4328 270.753 40.7128C270.753 39.7128 270.973 38.7995 271.413 37.9728C271.867 37.1462 272.507 36.4862 273.333 35.9928C274.173 35.4862 275.16 35.2328 276.293 35.2328C277.44 35.2328 278.42 35.4862 279.233 35.9928C280.047 36.4862 280.667 37.1462 281.093 37.9728C281.533 38.7862 281.753 39.6662 281.753 40.6128C281.753 40.7728 281.747 40.9395 281.733 41.1128C281.72 41.2728 281.707 41.4062 281.693 41.5128H273.593C273.647 42.0462 273.8 42.5128 274.053 42.9128C274.32 43.3128 274.653 43.6195 275.053 43.8328C275.467 44.0328 275.907 44.1328 276.373 44.1328C276.907 44.1328 277.407 44.0062 277.873 43.7528C278.353 43.4862 278.68 43.1395 278.853 42.7128L281.153 43.3528C280.9 43.8862 280.533 44.3595 280.053 44.7728C279.587 45.1862 279.033 45.5128 278.393 45.7528C277.753 45.9795 277.047 46.0928 276.273 46.0928ZM273.533 39.8128H279.013C278.96 39.2795 278.807 38.8195 278.553 38.4328C278.313 38.0328 277.993 37.7262 277.593 37.5128C277.193 37.2862 276.747 37.1728 276.253 37.1728C275.773 37.1728 275.333 37.2862 274.933 37.5128C274.547 37.7262 274.227 38.0328 273.973 38.4328C273.733 38.8195 273.587 39.2795 273.533 39.8128ZM282.586 45.8928V35.4128H285.266V39.4128H289.506V35.4128H292.186V45.8928H289.506V41.6528H285.266V45.8928H282.586ZM293.837 45.8928V35.4328H296.517V42.3128L301.217 35.4128H303.657V45.8928H300.977V39.1728L296.337 45.8928H293.837ZM305.302 45.8928V35.4328H307.982V42.3128L312.682 35.4128H315.122V45.8928H312.442V39.1728L307.802 45.8928H305.302ZM310.222 34.4328C309.196 34.4328 308.389 34.1728 307.802 33.6528C307.216 33.1195 306.922 32.4395 306.922 31.6128H308.582C308.582 32.0128 308.716 32.3462 308.982 32.6128C309.249 32.8795 309.662 33.0128 310.222 33.0128C310.782 33.0128 311.182 32.8862 311.422 32.6328C311.676 32.3795 311.829 32.0395 311.882 31.6128H313.542C313.542 32.4395 313.249 33.1195 312.662 33.6528C312.076 34.1728 311.262 34.4328 310.222 34.4328ZM327.808 41.4328L322.528 44.9728V42.7728L325.688 40.7128L322.528 38.5328V36.3528L327.808 40.1328V41.4328ZM321.988 41.4328L316.708 44.9728V42.7728L319.868 40.7128L316.708 38.5328V36.3528L321.988 40.1328V41.4328Z" fill="#093966"/>
<path fill-rule="evenodd" clip-rule="evenodd" d="M34.7723 11.7857H4.99891V0H54.8918V49.8929H43.1061V40.8571H22.3684L9.16579 54.0597L0.832031 45.726L34.7723 11.7857ZM43.1061 20.1195L34.1541 29.0714H43.1061V20.1195Z" fill="url(#paint0_linear_12_8)"/>
<defs>
<linearGradient id="paint0_linear_12_8" x1="0.832031" y1="65.2578" x2="57.9809" y2="-7.33668" gradientUnits="userSpaceOnUse">
<stop stop-color="#79C9DD"/>
<stop offset="1" stop-color="#4EAAFF"/>
</linearGradient>
</defs>
</svg>
