<svg width="335" height="55" viewBox="0 0 335 55" fill="none" xmlns="http://www.w3.org/2000/svg">
<path d="M78.0069 23.1C76.8335 23.1 75.7869 22.8533 74.8669 22.36C73.9602 21.8667 73.2202 21.1667 72.6469 20.26C72.0735 19.3533 71.7135 18.28 71.5669 17.04H69.4069V23H66.6469V8.8H69.4069V14.64H71.5869C71.7469 13.3867 72.1202 12.32 72.7069 11.44C73.3069 10.56 74.0669 9.88667 74.9869 9.42C75.9069 8.94 76.9335 8.7 78.0669 8.7C79.3869 8.7 80.5335 9.00667 81.5069 9.62C82.4935 10.22 83.2602 11.0667 83.8069 12.16C84.3669 13.24 84.6469 14.5 84.6469 15.94C84.6469 17.4867 84.3602 18.7933 83.7869 19.86C83.2135 20.9133 82.4269 21.72 81.4269 22.28C80.4402 22.8267 79.3002 23.1 78.0069 23.1ZM78.0469 20.66C78.8602 20.66 79.5469 20.46 80.1069 20.06C80.6802 19.6467 81.1135 19.08 81.4069 18.36C81.7002 17.64 81.8469 16.82 81.8469 15.9C81.8469 14.9133 81.6935 14.0733 81.3869 13.38C81.0802 12.6733 80.6402 12.1267 80.0669 11.74C79.4935 11.3533 78.8135 11.16 78.0269 11.16C77.2269 11.16 76.5469 11.36 75.9869 11.76C75.4269 12.16 75.0002 12.72 74.7069 13.44C74.4135 14.1467 74.2669 14.9667 74.2669 15.9C74.2669 16.8733 74.4135 17.72 74.7069 18.44C75.0135 19.1467 75.4469 19.6933 76.0069 20.08C76.5802 20.4667 77.2602 20.66 78.0469 20.66ZM91.8864 23.2C91.0731 23.2 90.3531 23.02 89.7264 22.66C89.1131 22.2867 88.6331 21.7867 88.2864 21.16V27.26H85.6064V12.52H87.9464V14.32C88.3464 13.7067 88.8531 13.2267 89.4664 12.88C90.0797 12.52 90.7797 12.34 91.5664 12.34C92.2731 12.34 92.9197 12.48 93.5064 12.76C94.1064 13.04 94.6264 13.4333 95.0664 13.94C95.5064 14.4333 95.8464 15.0067 96.0864 15.66C96.3397 16.3 96.4664 16.9933 96.4664 17.74C96.4664 18.7533 96.2664 19.6733 95.8664 20.5C95.4797 21.3267 94.9397 21.9867 94.2464 22.48C93.5664 22.96 92.7797 23.2 91.8864 23.2ZM90.9864 20.92C91.3997 20.92 91.7731 20.8333 92.1064 20.66C92.4397 20.4867 92.7264 20.2533 92.9664 19.96C93.2197 19.6533 93.4064 19.3133 93.5264 18.94C93.6597 18.5533 93.7264 18.1533 93.7264 17.74C93.7264 17.3 93.6531 16.8933 93.5064 16.52C93.3731 16.1467 93.1731 15.82 92.9064 15.54C92.6397 15.2467 92.3264 15.02 91.9664 14.86C91.6197 14.7 91.2397 14.62 90.8264 14.62C90.5731 14.62 90.3131 14.6667 90.0464 14.76C89.7931 14.84 89.5464 14.96 89.3064 15.12C89.0664 15.28 88.8531 15.4667 88.6664 15.68C88.4931 15.8933 88.3664 16.1267 88.2864 16.38V18.84C88.4464 19.2267 88.6597 19.58 88.9264 19.9C89.2064 20.22 89.5264 20.4733 89.8864 20.66C90.2464 20.8333 90.6131 20.92 90.9864 20.92ZM97.4822 23V12.54H100.162V19.42L104.862 12.52H107.302V23H104.622V16.28L99.9822 23H97.4822ZM108.088 25.54V20.66H108.368C108.634 20.66 108.881 20.5867 109.108 20.44C109.348 20.2933 109.554 20.0467 109.728 19.7C109.914 19.34 110.061 18.8467 110.168 18.22C110.288 17.5933 110.368 16.7933 110.408 15.82L110.528 12.52H118.388V20.66H119.848V25.54H117.508V23H110.448V25.54H108.088ZM111.748 20.66H115.708V14.78H112.868L112.808 16.08C112.768 16.96 112.701 17.7067 112.608 18.32C112.528 18.92 112.414 19.4133 112.268 19.8C112.134 20.1733 111.961 20.46 111.748 20.66ZM120.785 23V12.54H123.465V19.42L128.165 12.52H130.605V23H127.925V16.28L123.285 23H120.785ZM138.09 23V19.24C137.69 19.4133 137.283 19.54 136.87 19.62C136.47 19.7 136.01 19.74 135.49 19.74C134.383 19.74 133.517 19.4467 132.89 18.86C132.263 18.26 131.95 17.3867 131.95 16.24V12.52H134.63V15.88C134.63 16.5067 134.763 16.9667 135.03 17.26C135.31 17.5533 135.737 17.7 136.31 17.7C136.63 17.7 136.95 17.6667 137.27 17.6C137.59 17.5333 137.863 17.44 138.09 17.32V12.52H140.79V23H138.09ZM147.287 23.2C146.447 23.2 145.687 23.06 145.007 22.78C144.327 22.4867 143.747 22.0933 143.267 21.6C142.787 21.0933 142.413 20.52 142.147 19.88C141.893 19.2267 141.767 18.54 141.767 17.82C141.767 16.82 141.987 15.9067 142.427 15.08C142.88 14.2533 143.52 13.5933 144.347 13.1C145.187 12.5933 146.173 12.34 147.307 12.34C148.453 12.34 149.433 12.5933 150.247 13.1C151.06 13.5933 151.68 14.2533 152.107 15.08C152.547 15.8933 152.767 16.7733 152.767 17.72C152.767 17.88 152.76 18.0467 152.747 18.22C152.733 18.38 152.72 18.5133 152.707 18.62H144.607C144.66 19.1533 144.813 19.62 145.067 20.02C145.333 20.42 145.667 20.7267 146.067 20.94C146.48 21.14 146.92 21.24 147.387 21.24C147.92 21.24 148.42 21.1133 148.887 20.86C149.367 20.5933 149.693 20.2467 149.867 19.82L152.167 20.46C151.913 20.9933 151.547 21.4667 151.067 21.88C150.6 22.2933 150.047 22.62 149.407 22.86C148.767 23.0867 148.06 23.2 147.287 23.2ZM144.547 16.92H150.027C149.973 16.3867 149.82 15.9267 149.567 15.54C149.327 15.14 149.007 14.8333 148.607 14.62C148.207 14.3933 147.76 14.28 147.267 14.28C146.787 14.28 146.347 14.3933 145.947 14.62C145.56 14.8333 145.24 15.14 144.987 15.54C144.747 15.9267 144.6 16.3867 144.547 16.92ZM158.479 23.2C157.626 23.2 156.859 23.06 156.179 22.78C155.499 22.4867 154.919 22.0867 154.439 21.58C153.959 21.06 153.586 20.4733 153.319 19.82C153.066 19.1667 152.939 18.48 152.939 17.76C152.939 16.7733 153.159 15.8733 153.599 15.06C154.053 14.2333 154.693 13.5733 155.519 13.08C156.346 12.5867 157.326 12.34 158.459 12.34C159.593 12.34 160.566 12.5867 161.379 13.08C162.193 13.5733 162.799 14.22 163.199 15.02L160.579 15.82C160.353 15.4333 160.053 15.14 159.679 14.94C159.306 14.7267 158.893 14.62 158.439 14.62C157.933 14.62 157.466 14.7533 157.039 15.02C156.626 15.2733 156.299 15.64 156.059 16.12C155.819 16.5867 155.699 17.1333 155.699 17.76C155.699 18.3733 155.819 18.92 156.059 19.4C156.313 19.8667 156.646 20.24 157.059 20.52C157.473 20.7867 157.933 20.92 158.439 20.92C158.759 20.92 159.059 20.8667 159.339 20.76C159.633 20.6533 159.893 20.5067 160.119 20.32C160.346 20.1333 160.513 19.92 160.619 19.68L163.239 20.48C162.999 21 162.646 21.4667 162.179 21.88C161.726 22.2933 161.186 22.62 160.559 22.86C159.946 23.0867 159.253 23.2 158.479 23.2ZM164.088 23V12.52H166.768V16.48H167.668L170.508 12.52H173.428L169.708 17.58L173.828 23H170.768L167.628 18.84H166.768V23H164.088ZM178.988 23.2C178.134 23.2 177.368 23.06 176.688 22.78C176.008 22.4867 175.428 22.0867 174.948 21.58C174.481 21.0733 174.121 20.4933 173.868 19.84C173.614 19.1867 173.488 18.5 173.488 17.78C173.488 17.0467 173.614 16.3533 173.868 15.7C174.121 15.0467 174.481 14.4667 174.948 13.96C175.428 13.4533 176.008 13.06 176.688 12.78C177.368 12.4867 178.134 12.34 178.988 12.34C179.841 12.34 180.601 12.4867 181.268 12.78C181.948 13.06 182.528 13.4533 183.008 13.96C183.488 14.4667 183.848 15.0467 184.088 15.7C184.341 16.3533 184.468 17.0467 184.468 17.78C184.468 18.5 184.341 19.1867 184.088 19.84C183.848 20.4933 183.488 21.0733 183.008 21.58C182.541 22.0867 181.968 22.4867 181.288 22.78C180.608 23.06 179.841 23.2 178.988 23.2ZM176.248 17.78C176.248 18.3933 176.368 18.94 176.608 19.42C176.848 19.8867 177.174 20.2533 177.588 20.52C178.001 20.7867 178.468 20.92 178.988 20.92C179.494 20.92 179.954 20.7867 180.368 20.52C180.781 20.24 181.108 19.8667 181.348 19.4C181.601 18.92 181.728 18.3733 181.728 17.76C181.728 17.16 181.601 16.62 181.348 16.14C181.108 15.66 180.781 15.2867 180.368 15.02C179.954 14.7533 179.494 14.62 178.988 14.62C178.468 14.62 178.001 14.76 177.588 15.04C177.174 15.3067 176.848 15.68 176.608 16.16C176.368 16.6267 176.248 17.1667 176.248 17.78ZM190.337 23.2C189.497 23.2 188.737 23.06 188.057 22.78C187.377 22.4867 186.797 22.0933 186.317 21.6C185.837 21.0933 185.463 20.52 185.197 19.88C184.943 19.2267 184.817 18.54 184.817 17.82C184.817 16.82 185.037 15.9067 185.477 15.08C185.93 14.2533 186.57 13.5933 187.397 13.1C188.237 12.5933 189.223 12.34 190.357 12.34C191.503 12.34 192.483 12.5933 193.297 13.1C194.11 13.5933 194.73 14.2533 195.157 15.08C195.597 15.8933 195.817 16.7733 195.817 17.72C195.817 17.88 195.81 18.0467 195.797 18.22C195.783 18.38 195.77 18.5133 195.757 18.62H187.657C187.71 19.1533 187.863 19.62 188.117 20.02C188.383 20.42 188.717 20.7267 189.117 20.94C189.53 21.14 189.97 21.24 190.437 21.24C190.97 21.24 191.47 21.1133 191.937 20.86C192.417 20.5933 192.743 20.2467 192.917 19.82L195.217 20.46C194.963 20.9933 194.597 21.4667 194.117 21.88C193.65 22.2933 193.097 22.62 192.457 22.86C191.817 23.0867 191.11 23.2 190.337 23.2ZM187.597 16.92H193.077C193.023 16.3867 192.87 15.9267 192.617 15.54C192.377 15.14 192.057 14.8333 191.657 14.62C191.257 14.3933 190.81 14.28 190.317 14.28C189.837 14.28 189.397 14.3933 188.997 14.62C188.61 14.8333 188.29 15.14 188.037 15.54C187.797 15.9267 187.65 16.3867 187.597 16.92ZM199.934 19.9C199.934 19.22 200.121 18.6267 200.494 18.12C200.881 17.6 201.414 17.2 202.094 16.92C202.774 16.64 203.554 16.5 204.434 16.5C204.874 16.5 205.321 16.5333 205.774 16.6C206.227 16.6667 206.621 16.7733 206.954 16.92V16.36C206.954 15.6933 206.754 15.18 206.354 14.82C205.967 14.46 205.387 14.28 204.614 14.28C204.041 14.28 203.494 14.38 202.974 14.58C202.454 14.78 201.907 15.0733 201.334 15.46L200.474 13.7C201.167 13.2467 201.874 12.9067 202.594 12.68C203.327 12.4533 204.094 12.34 204.894 12.34C206.387 12.34 207.547 12.7133 208.374 13.46C209.214 14.2067 209.634 15.2733 209.634 16.66V20C209.634 20.28 209.681 20.48 209.774 20.6C209.881 20.72 210.047 20.7933 210.274 20.82V23C210.034 23.04 209.814 23.0733 209.614 23.1C209.427 23.1267 209.267 23.14 209.134 23.14C208.601 23.14 208.194 23.02 207.914 22.78C207.647 22.54 207.481 22.2467 207.414 21.9L207.354 21.36C206.901 21.9467 206.334 22.4 205.654 22.72C204.974 23.04 204.281 23.2 203.574 23.2C202.881 23.2 202.254 23.06 201.694 22.78C201.147 22.4867 200.714 22.0933 200.394 21.6C200.087 21.0933 199.934 20.5267 199.934 19.9ZM206.454 20.44C206.601 20.28 206.721 20.12 206.814 19.96C206.907 19.8 206.954 19.6533 206.954 19.52V18.46C206.634 18.3267 206.287 18.2267 205.914 18.16C205.541 18.08 205.187 18.04 204.854 18.04C204.161 18.04 203.587 18.1933 203.134 18.5C202.694 18.7933 202.474 19.1867 202.474 19.68C202.474 19.9467 202.547 20.2 202.694 20.44C202.841 20.68 203.054 20.8733 203.334 21.02C203.614 21.1667 203.947 21.24 204.334 21.24C204.734 21.24 205.127 21.1667 205.514 21.02C205.901 20.86 206.214 20.6667 206.454 20.44ZM211.338 23V12.52H218.278V14.86H214.018V23H211.338ZM223.875 23.2C223.035 23.2 222.275 23.06 221.595 22.78C220.915 22.4867 220.335 22.0933 219.855 21.6C219.375 21.0933 219.002 20.52 218.735 19.88C218.482 19.2267 218.355 18.54 218.355 17.82C218.355 16.82 218.575 15.9067 219.015 15.08C219.468 14.2533 220.108 13.5933 220.935 13.1C221.775 12.5933 222.762 12.34 223.895 12.34C225.042 12.34 226.022 12.5933 226.835 13.1C227.648 13.5933 228.268 14.2533 228.695 15.08C229.135 15.8933 229.355 16.7733 229.355 17.72C229.355 17.88 229.348 18.0467 229.335 18.22C229.322 18.38 229.308 18.5133 229.295 18.62H221.195C221.248 19.1533 221.402 19.62 221.655 20.02C221.922 20.42 222.255 20.7267 222.655 20.94C223.068 21.14 223.508 21.24 223.975 21.24C224.508 21.24 225.008 21.1133 225.475 20.86C225.955 20.5933 226.282 20.2467 226.455 19.82L228.755 20.46C228.502 20.9933 228.135 21.4667 227.655 21.88C227.188 22.2933 226.635 22.62 225.995 22.86C225.355 23.0867 224.648 23.2 223.875 23.2ZM221.135 16.92H226.615C226.562 16.3867 226.408 15.9267 226.155 15.54C225.915 15.14 225.595 14.8333 225.195 14.62C224.795 14.3933 224.348 14.28 223.855 14.28C223.375 14.28 222.935 14.3933 222.535 14.62C222.148 14.8333 221.828 15.14 221.575 15.54C221.335 15.9267 221.188 16.3867 221.135 16.92ZM230.188 23V12.52H232.868V16.52H237.108V12.52H239.788V23H237.108V18.76H232.868V23H230.188ZM243.858 23V14.86H240.538V12.52H249.878V14.86H246.538V23H243.858ZM255.46 23.2C254.606 23.2 253.84 23.06 253.16 22.78C252.48 22.4867 251.9 22.0867 251.42 21.58C250.94 21.06 250.566 20.4733 250.3 19.82C250.046 19.1667 249.92 18.48 249.92 17.76C249.92 16.7733 250.14 15.8733 250.58 15.06C251.033 14.2333 251.673 13.5733 252.5 13.08C253.326 12.5867 254.306 12.34 255.44 12.34C256.573 12.34 257.546 12.5867 258.36 13.08C259.173 13.5733 259.78 14.22 260.18 15.02L257.56 15.82C257.333 15.4333 257.033 15.14 256.66 14.94C256.286 14.7267 255.873 14.62 255.42 14.62C254.913 14.62 254.446 14.7533 254.02 15.02C253.606 15.2733 253.28 15.64 253.04 16.12C252.8 16.5867 252.68 17.1333 252.68 17.76C252.68 18.3733 252.8 18.92 253.04 19.4C253.293 19.8667 253.626 20.24 254.04 20.52C254.453 20.7867 254.913 20.92 255.42 20.92C255.74 20.92 256.04 20.8667 256.32 20.76C256.613 20.6533 256.873 20.5067 257.1 20.32C257.326 20.1333 257.493 19.92 257.6 19.68L260.22 20.48C259.98 21 259.626 21.4667 259.16 21.88C258.706 22.2933 258.166 22.62 257.54 22.86C256.926 23.0867 256.233 23.2 255.46 23.2ZM263.489 23V14.86H260.169V12.52H269.509V14.86H266.169V23H263.489ZM270.21 23V12.52H276.05C276.77 12.52 277.35 12.64 277.79 12.88C278.244 13.12 278.577 13.4333 278.79 13.82C279.004 14.2067 279.11 14.62 279.11 15.06C279.11 15.6467 278.977 16.16 278.71 16.6C278.457 17.04 278.057 17.38 277.51 17.62C278.124 17.7933 278.624 18.0933 279.01 18.52C279.397 18.9333 279.59 19.48 279.59 20.16C279.59 20.8133 279.437 21.3533 279.13 21.78C278.824 22.1933 278.384 22.5 277.81 22.7C277.237 22.9 276.557 23 275.77 23H270.21ZM272.75 21.18H275.69C275.93 21.18 276.15 21.12 276.35 21C276.55 20.88 276.704 20.72 276.81 20.52C276.93 20.32 276.99 20.1 276.99 19.86C276.99 19.6067 276.937 19.3867 276.83 19.2C276.724 19 276.57 18.8467 276.37 18.74C276.184 18.62 275.964 18.56 275.71 18.56H272.75V21.18ZM272.75 16.88H275.37C275.61 16.88 275.824 16.82 276.01 16.7C276.197 16.58 276.337 16.42 276.43 16.22C276.537 16.02 276.59 15.8 276.59 15.56C276.59 15.2133 276.477 14.9267 276.25 14.7C276.037 14.46 275.75 14.34 275.39 14.34H272.75V16.88ZM285.578 23.2C284.725 23.2 283.958 23.06 283.278 22.78C282.598 22.4867 282.018 22.0867 281.538 21.58C281.072 21.0733 280.712 20.4933 280.458 19.84C280.205 19.1867 280.078 18.5 280.078 17.78C280.078 17.0467 280.205 16.3533 280.458 15.7C280.712 15.0467 281.072 14.4667 281.538 13.96C282.018 13.4533 282.598 13.06 283.278 12.78C283.958 12.4867 284.725 12.34 285.578 12.34C286.432 12.34 287.192 12.4867 287.858 12.78C288.538 13.06 289.118 13.4533 289.598 13.96C290.078 14.4667 290.438 15.0467 290.678 15.7C290.932 16.3533 291.058 17.0467 291.058 17.78C291.058 18.5 290.932 19.1867 290.678 19.84C290.438 20.4933 290.078 21.0733 289.598 21.58C289.132 22.0867 288.558 22.4867 287.878 22.78C287.198 23.06 286.432 23.2 285.578 23.2ZM282.838 17.78C282.838 18.3933 282.958 18.94 283.198 19.42C283.438 19.8867 283.765 20.2533 284.178 20.52C284.592 20.7867 285.058 20.92 285.578 20.92C286.085 20.92 286.545 20.7867 286.958 20.52C287.372 20.24 287.698 19.8667 287.938 19.4C288.192 18.92 288.318 18.3733 288.318 17.76C288.318 17.16 288.192 16.62 287.938 16.14C287.698 15.66 287.372 15.2867 286.958 15.02C286.545 14.7533 286.085 14.62 285.578 14.62C285.058 14.62 284.592 14.76 284.178 15.04C283.765 15.3067 283.438 15.68 283.198 16.16C282.958 16.6267 282.838 17.1667 282.838 17.78ZM65.8669 39.24L71.1469 35.46V37.64L68.0069 39.82L71.1469 41.88V44.08L65.8669 40.54V39.24ZM71.7069 39.24L76.9669 35.46V37.64L73.8269 39.82L76.9669 41.88V44.08L71.7069 40.54V39.24ZM82.6952 30.8H85.4952L90.7152 45H87.8752L86.5552 41.46H81.5952L80.2952 45H77.4552L82.6952 30.8ZM86.0552 39.52L84.0952 33.66L82.0552 39.52H86.0552ZM91.2127 45V34.52H93.8927V38.48H94.7927L97.6327 34.52H100.553L96.8327 39.58L100.953 45H97.8927L94.7527 40.84H93.8927V45H91.2127ZM104.239 45V36.86H100.919V34.52H110.259V36.86H106.919V45H104.239ZM110.96 45V34.54H113.64V41.42L118.34 34.52H120.78V45H118.1V38.28L113.46 45H110.96ZM122.426 45V34.52H128.266C128.986 34.52 129.566 34.64 130.006 34.88C130.459 35.12 130.793 35.4333 131.006 35.82C131.219 36.2067 131.326 36.62 131.326 37.06C131.326 37.6467 131.193 38.16 130.926 38.6C130.673 39.04 130.273 39.38 129.726 39.62C130.339 39.7933 130.839 40.0933 131.226 40.52C131.613 40.9333 131.806 41.48 131.806 42.16C131.806 42.8133 131.653 43.3533 131.346 43.78C131.039 44.1933 130.599 44.5 130.026 44.7C129.453 44.9 128.773 45 127.986 45H122.426ZM124.966 43.18H127.906C128.146 43.18 128.366 43.12 128.566 43C128.766 42.88 128.919 42.72 129.026 42.52C129.146 42.32 129.206 42.1 129.206 41.86C129.206 41.6067 129.153 41.3867 129.046 41.2C128.939 41 128.786 40.8467 128.586 40.74C128.399 40.62 128.179 40.56 127.926 40.56H124.966V43.18ZM124.966 38.88H127.586C127.826 38.88 128.039 38.82 128.226 38.7C128.413 38.58 128.553 38.42 128.646 38.22C128.753 38.02 128.806 37.8 128.806 37.56C128.806 37.2133 128.693 36.9267 128.466 36.7C128.253 36.46 127.966 36.34 127.606 36.34H124.966V38.88ZM136.959 45V34.52H146.359V45H143.679V36.86H139.639V45H136.959ZM154.275 45.2C153.461 45.2 152.741 45.02 152.115 44.66C151.501 44.2867 151.021 43.7867 150.675 43.16V49.26H147.995V34.52H150.335V36.32C150.735 35.7067 151.241 35.2267 151.855 34.88C152.468 34.52 153.168 34.34 153.955 34.34C154.661 34.34 155.308 34.48 155.895 34.76C156.495 35.04 157.015 35.4333 157.455 35.94C157.895 36.4333 158.235 37.0067 158.475 37.66C158.728 38.3 158.855 38.9933 158.855 39.74C158.855 40.7533 158.655 41.6733 158.255 42.5C157.868 43.3267 157.328 43.9867 156.635 44.48C155.955 44.96 155.168 45.2 154.275 45.2ZM153.375 42.92C153.788 42.92 154.161 42.8333 154.495 42.66C154.828 42.4867 155.115 42.2533 155.355 41.96C155.608 41.6533 155.795 41.3133 155.915 40.94C156.048 40.5533 156.115 40.1533 156.115 39.74C156.115 39.3 156.041 38.8933 155.895 38.52C155.761 38.1467 155.561 37.82 155.295 37.54C155.028 37.2467 154.715 37.02 154.355 36.86C154.008 36.7 153.628 36.62 153.215 36.62C152.961 36.62 152.701 36.6667 152.435 36.76C152.181 36.84 151.935 36.96 151.695 37.12C151.455 37.28 151.241 37.4667 151.055 37.68C150.881 37.8933 150.755 38.1267 150.675 38.38V40.84C150.835 41.2267 151.048 41.58 151.315 41.9C151.595 42.22 151.915 42.4733 152.275 42.66C152.635 42.8333 153.001 42.92 153.375 42.92ZM159.15 41.9C159.15 41.22 159.337 40.6267 159.71 40.12C160.097 39.6 160.63 39.2 161.31 38.92C161.99 38.64 162.77 38.5 163.65 38.5C164.09 38.5 164.537 38.5333 164.99 38.6C165.444 38.6667 165.837 38.7733 166.17 38.92V38.36C166.17 37.6933 165.97 37.18 165.57 36.82C165.184 36.46 164.604 36.28 163.83 36.28C163.257 36.28 162.71 36.38 162.19 36.58C161.67 36.78 161.124 37.0733 160.55 37.46L159.69 35.7C160.384 35.2467 161.09 34.9067 161.81 34.68C162.544 34.4533 163.31 34.34 164.11 34.34C165.604 34.34 166.764 34.7133 167.59 35.46C168.43 36.2067 168.85 37.2733 168.85 38.66V42C168.85 42.28 168.897 42.48 168.99 42.6C169.097 42.72 169.264 42.7933 169.49 42.82V45C169.25 45.04 169.03 45.0733 168.83 45.1C168.644 45.1267 168.484 45.14 168.35 45.14C167.817 45.14 167.41 45.02 167.13 44.78C166.864 44.54 166.697 44.2467 166.63 43.9L166.57 43.36C166.117 43.9467 165.55 44.4 164.87 44.72C164.19 45.04 163.497 45.2 162.79 45.2C162.097 45.2 161.47 45.06 160.91 44.78C160.364 44.4867 159.93 44.0933 159.61 43.6C159.304 43.0933 159.15 42.5267 159.15 41.9ZM165.67 42.44C165.817 42.28 165.937 42.12 166.03 41.96C166.124 41.8 166.17 41.6533 166.17 41.52V40.46C165.85 40.3267 165.504 40.2267 165.13 40.16C164.757 40.08 164.404 40.04 164.07 40.04C163.377 40.04 162.804 40.1933 162.35 40.5C161.91 40.7933 161.69 41.1867 161.69 41.68C161.69 41.9467 161.764 42.2 161.91 42.44C162.057 42.68 162.27 42.8733 162.55 43.02C162.83 43.1667 163.164 43.24 163.55 43.24C163.95 43.24 164.344 43.1667 164.73 43.02C165.117 42.86 165.43 42.6667 165.67 42.44ZM170.555 45V34.52H176.395C177.115 34.52 177.695 34.64 178.135 34.88C178.588 35.12 178.922 35.4333 179.135 35.82C179.348 36.2067 179.455 36.62 179.455 37.06C179.455 37.6467 179.322 38.16 179.055 38.6C178.802 39.04 178.402 39.38 177.855 39.62C178.468 39.7933 178.968 40.0933 179.355 40.52C179.742 40.9333 179.935 41.48 179.935 42.16C179.935 42.8133 179.782 43.3533 179.475 43.78C179.168 44.1933 178.728 44.5 178.155 44.7C177.582 44.9 176.902 45 176.115 45H170.555ZM173.095 43.18H176.035C176.275 43.18 176.495 43.12 176.695 43C176.895 42.88 177.048 42.72 177.155 42.52C177.275 42.32 177.335 42.1 177.335 41.86C177.335 41.6067 177.282 41.3867 177.175 41.2C177.068 41 176.915 40.8467 176.715 40.74C176.528 40.62 176.308 40.56 176.055 40.56H173.095V43.18ZM173.095 38.88H175.715C175.955 38.88 176.168 38.82 176.355 38.7C176.542 38.58 176.682 38.42 176.775 38.22C176.882 38.02 176.935 37.8 176.935 37.56C176.935 37.2133 176.822 36.9267 176.595 36.7C176.382 36.46 176.095 36.34 175.735 36.34H173.095V38.88ZM185.923 45.2C185.07 45.2 184.303 45.06 183.623 44.78C182.943 44.4867 182.363 44.0867 181.883 43.58C181.416 43.0733 181.056 42.4933 180.803 41.84C180.55 41.1867 180.423 40.5 180.423 39.78C180.423 39.0467 180.55 38.3533 180.803 37.7C181.056 37.0467 181.416 36.4667 181.883 35.96C182.363 35.4533 182.943 35.06 183.623 34.78C184.303 34.4867 185.07 34.34 185.923 34.34C186.776 34.34 187.536 34.4867 188.203 34.78C188.883 35.06 189.463 35.4533 189.943 35.96C190.423 36.4667 190.783 37.0467 191.023 37.7C191.276 38.3533 191.403 39.0467 191.403 39.78C191.403 40.5 191.276 41.1867 191.023 41.84C190.783 42.4933 190.423 43.0733 189.943 43.58C189.476 44.0867 188.903 44.4867 188.223 44.78C187.543 45.06 186.776 45.2 185.923 45.2ZM183.183 39.78C183.183 40.3933 183.303 40.94 183.543 41.42C183.783 41.8867 184.11 42.2533 184.523 42.52C184.936 42.7867 185.403 42.92 185.923 42.92C186.43 42.92 186.89 42.7867 187.303 42.52C187.716 42.24 188.043 41.8667 188.283 41.4C188.536 40.92 188.663 40.3733 188.663 39.76C188.663 39.16 188.536 38.62 188.283 38.14C188.043 37.66 187.716 37.2867 187.303 37.02C186.89 36.7533 186.43 36.62 185.923 36.62C185.403 36.62 184.936 36.76 184.523 37.04C184.11 37.3067 183.783 37.68 183.543 38.16C183.303 38.6267 183.183 39.1667 183.183 39.78ZM192.412 45V34.52H198.252C198.972 34.52 199.552 34.64 199.992 34.88C200.445 35.12 200.779 35.4333 200.992 35.82C201.205 36.2067 201.312 36.62 201.312 37.06C201.312 37.6467 201.179 38.16 200.912 38.6C200.659 39.04 200.259 39.38 199.712 39.62C200.325 39.7933 200.825 40.0933 201.212 40.52C201.599 40.9333 201.792 41.48 201.792 42.16C201.792 42.8133 201.639 43.3533 201.332 43.78C201.025 44.1933 200.585 44.5 200.012 44.7C199.439 44.9 198.759 45 197.972 45H192.412ZM194.952 43.18H197.892C198.132 43.18 198.352 43.12 198.552 43C198.752 42.88 198.905 42.72 199.012 42.52C199.132 42.32 199.192 42.1 199.192 41.86C199.192 41.6067 199.139 41.3867 199.032 41.2C198.925 41 198.772 40.8467 198.572 40.74C198.385 40.62 198.165 40.56 197.912 40.56H194.952V43.18ZM194.952 38.88H197.572C197.812 38.88 198.025 38.82 198.212 38.7C198.399 38.58 198.539 38.42 198.632 38.22C198.739 38.02 198.792 37.8 198.792 37.56C198.792 37.2133 198.679 36.9267 198.452 36.7C198.239 36.46 197.952 36.34 197.592 36.34H194.952V38.88ZM202.94 45V34.52H205.62V37.82H207.46C208.727 37.82 209.693 38.14 210.36 38.78C211.027 39.42 211.36 40.2667 211.36 41.32C211.36 42.0267 211.213 42.66 210.92 43.22C210.64 43.78 210.227 44.22 209.68 44.54C209.133 44.8467 208.453 45 207.64 45H202.94ZM205.62 42.96H207.22C207.593 42.96 207.893 42.8867 208.12 42.74C208.347 42.5933 208.513 42.4 208.62 42.16C208.74 41.92 208.8 41.6467 208.8 41.34C208.8 41.0467 208.747 40.7867 208.64 40.56C208.533 40.32 208.36 40.1333 208.12 40C207.893 39.8533 207.587 39.78 207.2 39.78H205.62V42.96ZM213 45V34.54H215.68V45H213ZM219.055 34.52L221.255 37.8L221.415 38.16L221.615 37.8L223.795 34.52H226.615L222.975 39.74L226.675 45H223.855L221.595 41.74L221.415 41.4L221.255 41.74L219.015 45H216.195L219.895 39.8L216.255 34.52H219.055ZM237.445 45.2C236.632 45.2 235.912 45.02 235.285 44.66C234.672 44.2867 234.192 43.7867 233.845 43.16V49.26H231.165V34.52H233.505V36.32C233.905 35.7067 234.412 35.2267 235.025 34.88C235.638 34.52 236.338 34.34 237.125 34.34C237.832 34.34 238.478 34.48 239.065 34.76C239.665 35.04 240.185 35.4333 240.625 35.94C241.065 36.4333 241.405 37.0067 241.645 37.66C241.898 38.3 242.025 38.9933 242.025 39.74C242.025 40.7533 241.825 41.6733 241.425 42.5C241.038 43.3267 240.498 43.9867 239.805 44.48C239.125 44.96 238.338 45.2 237.445 45.2ZM236.545 42.92C236.958 42.92 237.332 42.8333 237.665 42.66C237.998 42.4867 238.285 42.2533 238.525 41.96C238.778 41.6533 238.965 41.3133 239.085 40.94C239.218 40.5533 239.285 40.1533 239.285 39.74C239.285 39.3 239.212 38.8933 239.065 38.52C238.932 38.1467 238.732 37.82 238.465 37.54C238.198 37.2467 237.885 37.02 237.525 36.86C237.178 36.7 236.798 36.62 236.385 36.62C236.132 36.62 235.872 36.6667 235.605 36.76C235.352 36.84 235.105 36.96 234.865 37.12C234.625 37.28 234.412 37.4667 234.225 37.68C234.052 37.8933 233.925 38.1267 233.845 38.38V40.84C234.005 41.2267 234.218 41.58 234.485 41.9C234.765 42.22 235.085 42.4733 235.445 42.66C235.805 42.8333 236.172 42.92 236.545 42.92ZM247.901 45.2C247.061 45.2 246.301 45.06 245.621 44.78C244.941 44.4867 244.361 44.0933 243.881 43.6C243.401 43.0933 243.027 42.52 242.761 41.88C242.507 41.2267 242.381 40.54 242.381 39.82C242.381 38.82 242.601 37.9067 243.041 37.08C243.494 36.2533 244.134 35.5933 244.961 35.1C245.801 34.5933 246.787 34.34 247.921 34.34C249.067 34.34 250.047 34.5933 250.861 35.1C251.674 35.5933 252.294 36.2533 252.721 37.08C253.161 37.8933 253.381 38.7733 253.381 39.72C253.381 39.88 253.374 40.0467 253.361 40.22C253.347 40.38 253.334 40.5133 253.321 40.62H245.221C245.274 41.1533 245.427 41.62 245.681 42.02C245.947 42.42 246.281 42.7267 246.681 42.94C247.094 43.14 247.534 43.24 248.001 43.24C248.534 43.24 249.034 43.1133 249.501 42.86C249.981 42.5933 250.307 42.2467 250.481 41.82L252.781 42.46C252.527 42.9933 252.161 43.4667 251.681 43.88C251.214 44.2933 250.661 44.62 250.021 44.86C249.381 45.0867 248.674 45.2 247.901 45.2ZM245.161 38.92H250.641C250.587 38.3867 250.434 37.9267 250.181 37.54C249.941 37.14 249.621 36.8333 249.221 36.62C248.821 36.3933 248.374 36.28 247.881 36.28C247.401 36.28 246.961 36.3933 246.561 36.62C246.174 36.8333 245.854 37.14 245.601 37.54C245.361 37.9267 245.214 38.3867 245.161 38.92ZM254.213 45V34.52H256.893V42.66H260.233V34.52H262.933V42.66H266.253V34.52H268.933V45H254.213ZM275.441 45.2C274.601 45.2 273.841 45.06 273.161 44.78C272.481 44.4867 271.901 44.0933 271.421 43.6C270.941 43.0933 270.568 42.52 270.301 41.88C270.048 41.2267 269.921 40.54 269.921 39.82C269.921 38.82 270.141 37.9067 270.581 37.08C271.035 36.2533 271.675 35.5933 272.501 35.1C273.341 34.5933 274.328 34.34 275.461 34.34C276.608 34.34 277.588 34.5933 278.401 35.1C279.215 35.5933 279.835 36.2533 280.261 37.08C280.701 37.8933 280.921 38.7733 280.921 39.72C280.921 39.88 280.915 40.0467 280.901 40.22C280.888 40.38 280.875 40.5133 280.861 40.62H272.761C272.815 41.1533 272.968 41.62 273.221 42.02C273.488 42.42 273.821 42.7267 274.221 42.94C274.635 43.14 275.075 43.24 275.541 43.24C276.075 43.24 276.575 43.1133 277.041 42.86C277.521 42.5933 277.848 42.2467 278.021 41.82L280.321 42.46C280.068 42.9933 279.701 43.4667 279.221 43.88C278.755 44.2933 278.201 44.62 277.561 44.86C276.921 45.0867 276.215 45.2 275.441 45.2ZM272.701 38.92H278.181C278.128 38.3867 277.975 37.9267 277.721 37.54C277.481 37.14 277.161 36.8333 276.761 36.62C276.361 36.3933 275.915 36.28 275.421 36.28C274.941 36.28 274.501 36.3933 274.101 36.62C273.715 36.8333 273.395 37.14 273.141 37.54C272.901 37.9267 272.755 38.3867 272.701 38.92ZM281.754 45V34.52H284.434V38.52H288.674V34.52H291.354V45H288.674V40.76H284.434V45H281.754ZM293.005 45V34.54H295.685V41.42L300.385 34.52H302.825V45H300.145V38.28L295.505 45H293.005ZM304.47 45V34.54H307.15V41.42L311.85 34.52H314.29V45H311.61V38.28L306.97 45H304.47ZM309.39 33.54C308.364 33.54 307.557 33.28 306.97 32.76C306.384 32.2267 306.09 31.5467 306.09 30.72H307.75C307.75 31.12 307.884 31.4533 308.15 31.72C308.417 31.9867 308.83 32.12 309.39 32.12C309.95 32.12 310.35 31.9933 310.59 31.74C310.844 31.4867 310.997 31.1467 311.05 30.72H312.71C312.71 31.5467 312.417 32.2267 311.83 32.76C311.244 33.28 310.43 33.54 309.39 33.54ZM326.976 40.54L321.696 44.08V41.88L324.856 39.82L321.696 37.64V35.46L326.976 39.24V40.54ZM321.156 40.54L315.876 44.08V41.88L319.036 39.82L315.876 37.64V35.46L321.156 39.24V40.54Z" fill="white"/>
<path fill-rule="evenodd" clip-rule="evenodd" d="M33.9403 11.7857H4.16688V0H54.0597V49.8929H42.274V40.8571H21.5364L8.33376 54.0597L0 45.726L33.9403 11.7857ZM42.274 20.1195L33.3221 29.0714H42.274V20.1195Z" fill="white"/>
</svg>
