<svg width="1344" height="81" viewBox="0 0 1344 81" fill="none" xmlns="http://www.w3.org/2000/svg">
<g clip-path="url(#clip0_44_315)">
<path fill-rule="evenodd" clip-rule="evenodd" d="M1332.28 8.07806C1317.83 18.0402 1304.6 23.1784 1283.61 26.9842C1246.41 33.7282 1236.51 34.0212 1004.19 35.221C759.917 36.4831 749.207 36.8661 712.685 45.6349C702.824 48.0019 689.315 53.2923 682.656 57.3927L670.551 64.8471L658.155 57.3502C644.083 48.84 622.026 43.3007 585.78 39.1774C564.199 36.722 530.886 36.1835 339.144 35.1899C109.555 34.0015 95.0718 33.5596 57.4226 26.5913C37.7252 22.946 20.1846 15.904 9.53455 7.36602L0.343872 0L0.020752 5.84043C-0.607422 17.0793 13.0676 28.9337 35.9979 37.0249C75.4204 50.9385 121.42 53.1663 369.469 53.1859C476.5 53.1941 558.523 53.9029 574.987 54.9619C612.973 57.4058 639.266 63.2348 656.132 72.9498L670.108 81L684.743 73.2902C705.198 62.5129 729.976 56.9295 766.346 54.8997C782.949 53.9733 875.409 53.2187 973.199 53.2121C1070.46 53.2039 1170.02 52.4084 1194.45 51.4443C1291.98 47.5894 1334.4 35.5697 1341.35 9.82136L1344 0L1332.28 8.07806Z" fill="#D1D1D1"/>
</g>
<defs>
<clipPath id="clip0_44_315">
<rect width="1344" height="81" fill="white"/>
</clipPath>
</defs>
</svg>
