<svg width="49" height="291" viewBox="0 0 49 291" fill="none" xmlns="http://www.w3.org/2000/svg">
<path fill-rule="evenodd" clip-rule="evenodd" d="M4.88673 2.53791C10.9132 5.6668 14.0215 8.53169 16.3238 13.0765C20.4035 21.1292 20.5807 23.2732 21.3065 73.5744C22.07 126.464 22.3017 128.783 27.6063 136.691C29.0382 138.826 32.2386 141.751 34.7191 143.193L39.2285 145.814L34.6933 148.498C29.5452 151.545 26.1943 156.32 23.6999 164.168C22.2146 168.841 21.8888 176.054 21.2877 217.569C20.5688 267.279 20.3015 270.415 16.0861 278.567C13.8809 282.832 9.62097 286.63 4.45599 288.936L0 290.926L3.5331 290.996C10.3319 291.132 17.5031 288.171 22.3978 283.206C30.8146 274.67 32.1623 264.71 32.1742 211.003C32.1791 187.829 32.6079 170.07 33.2486 166.505C34.727 158.28 38.2532 152.588 44.1301 148.936L49 145.91L44.3361 142.741C37.8165 138.312 34.4388 132.947 33.211 125.073C32.6505 121.478 32.194 101.458 32.19 80.2851C32.1851 59.2259 31.7038 37.6696 31.1206 32.3808C28.7886 11.2636 21.5175 2.07793 5.94131 0.573979L0 0L4.88673 2.53791Z" fill="#D1D1D1"/>
</svg>
