<svg width="1196" height="26" viewBox="0 0 1196 26" fill="none" xmlns="http://www.w3.org/2000/svg">
<g clip-path="url(#clip0_172_3039)">
<path fill-rule="evenodd" clip-rule="evenodd" d="M1185.57 2.59296C1172.71 5.79068 1160.94 7.43998 1142.26 8.66159C1109.16 10.8263 1100.35 10.9204 893.612 11.3055C676.235 11.7106 666.705 11.8336 634.204 14.6482C625.43 15.408 613.409 17.1062 607.482 18.4224L596.71 20.8151L585.68 18.4087C573.157 15.677 553.529 13.899 521.275 12.5755C502.07 11.7873 472.425 11.6145 301.798 11.2955C97.4908 10.9141 84.6025 10.7722 51.0992 8.53549C33.5709 7.36537 17.9618 5.105 8.48462 2.3644L0.30603 0L0.0184326 1.87471C-0.540527 5.48226 11.6285 9.28736 32.0338 11.8845C67.1152 16.3506 108.049 17.0657 328.783 17.072C424.028 17.0746 497.019 17.3022 511.67 17.6421C545.473 18.4266 568.871 20.2976 583.88 23.416L596.316 26L609.34 23.5253C627.542 20.0659 649.591 18.2737 681.956 17.6221C696.731 17.3248 779.01 17.0825 866.031 17.0804C952.584 17.0778 1041.18 16.8224 1062.92 16.513C1149.71 15.2756 1187.46 11.4174 1193.64 3.15253L1196 0L1185.57 2.59296Z" fill="#EB1E1E"/>
</g>
<defs>
<clipPath id="clip0_172_3039">
<rect width="1196" height="26" fill="white"/>
</clipPath>
</defs>
</svg>
