<svg width="100" height="100" viewBox="0 0 100 100" fill="none" xmlns="http://www.w3.org/2000/svg">
<g clip-path="url(#clip0_54_403)">
<rect width="100" height="100" rx="24" fill="white"/>
<path d="M100 74.6233C100 75.1712 99.9829 76.3527 99.9486 77.2774C99.863 79.5205 99.6918 82.4144 99.4178 83.7329C99.0069 85.7192 98.4075 87.5856 97.6027 89.1438C96.661 90.9931 95.4623 92.637 94.024 94.0582C92.6027 95.4795 90.9589 96.6781 89.1096 97.6199C87.5514 98.4247 85.6678 99.024 83.6644 99.4349C82.363 99.6918 79.4863 99.8801 77.2603 99.9486C76.3356 99.9829 75.1541 100 74.6062 100H25.3596C24.8116 100 23.6301 99.9829 22.7055 99.9486C20.4623 99.863 17.5685 99.6918 16.25 99.4178C14.2637 99.0069 12.3973 98.4075 10.839 97.6027C8.98973 96.661 7.34589 95.4623 5.92466 94.024C4.50342 92.6027 3.30479 90.9589 2.36301 89.1096C1.55822 87.5514 0.958904 85.6678 0.547945 83.6644C0.291096 82.363 0.10274 79.4863 0.0342466 77.2603C0.0171233 76.3527 0 75.1712 0 74.6233V25.3767C0 24.8288 0.0171233 23.6473 0.0513699 22.7226C0.136986 20.4795 0.308219 17.5856 0.582192 16.2671C0.993151 14.2808 1.59247 12.4144 2.39726 10.8562C3.33904 9.00685 4.53767 7.36301 5.9589 5.94178C7.38014 4.52055 9.02397 3.32192 10.8733 2.38014C12.4315 1.57534 14.3151 0.976027 16.3185 0.565068C17.6199 0.308219 20.4966 0.119863 22.7226 0.0513699C23.6473 0.0171233 24.8288 0 25.3767 0H74.6233C75.1712 0 76.3527 0.0171233 77.2774 0.0513699C79.5205 0.136986 82.4144 0.308219 83.7329 0.582192C85.7192 0.993151 87.5856 1.59247 89.1438 2.39726C90.9931 3.33904 92.637 4.53767 94.0582 5.97603C95.4795 7.39726 96.6781 9.0411 97.6199 10.8904C98.4247 12.4486 99.024 14.3322 99.4349 16.3356C99.6918 17.637 99.8801 20.5137 99.9486 22.7397C99.9829 23.6644 100 24.8459 100 25.3938V74.6233Z" fill="#45E862"/>
<path fill-rule="evenodd" clip-rule="evenodd" d="M76.3011 23.9384C69.5716 17.2089 60.6162 13.4932 51.0785 13.4932C31.421 13.4932 15.4449 29.4863 15.4278 49.1267C15.4278 55.411 17.0717 61.5411 20.1881 66.9349L15.1367 85.411L34.0408 80.4623C39.2463 83.3048 45.1025 84.7945 51.0785 84.7945H51.0956C70.736 84.7945 86.7292 68.8014 86.7463 49.161C86.7463 39.6233 83.0305 30.6678 76.3011 23.9384ZM51.0956 78.7671C45.7703 78.7671 40.5477 77.3288 36.01 74.6404L34.9312 74.0069L23.7155 76.9521L26.7121 66.0274L26.01 64.9144C23.0477 60.2055 21.4723 54.7432 21.4723 49.1438C21.4723 32.8082 34.7771 19.5206 51.1127 19.5206C59.0237 19.5206 66.4723 22.6028 72.0545 28.2021C77.6538 33.8014 80.736 41.25 80.7189 49.161C80.7018 65.4795 67.4141 78.7671 51.0956 78.7671ZM67.3456 56.5925C66.4552 56.1473 62.0716 53.9897 61.2668 53.6986C60.4449 53.4075 59.8627 53.2534 59.2634 54.1439C58.6641 55.0343 56.9689 57.0377 56.4381 57.637C55.9244 58.2363 55.3936 58.3048 54.5032 57.8596C53.6127 57.4144 50.736 56.4726 47.3456 53.4418C44.6915 51.0788 42.9107 48.1678 42.397 47.2774C41.8833 46.387 42.3456 45.9075 42.7908 45.4623C43.1847 45.0685 43.6812 44.4178 44.1264 43.9041C44.5717 43.3904 44.7258 43.0137 45.0169 42.4144C45.3079 41.8151 45.171 41.3014 44.9484 40.8562C44.7258 40.411 42.9449 36.0274 42.2086 34.2466C41.4895 32.5171 40.7532 32.7397 40.2052 32.7226C39.6915 32.6884 39.0922 32.6884 38.4929 32.6884C37.8936 32.6884 36.9347 32.911 36.1127 33.8014C35.2908 34.6918 32.9963 36.8493 32.9963 41.2329C32.9963 45.6165 36.1812 49.8459 36.6264 50.4452C37.0716 51.0445 42.9107 60.0343 51.849 63.887C53.9723 64.8117 55.6333 65.3596 56.9347 65.7706C59.0751 66.4555 61.01 66.3528 62.5511 66.1302C64.2634 65.8733 67.8251 63.9726 68.5614 61.9007C69.2977 59.8288 69.2977 58.0308 69.0751 57.6712C68.8182 57.2603 68.236 57.0377 67.3456 56.5925Z" fill="white"/>
</g>
<defs>
<clipPath id="clip0_54_403">
<rect width="100" height="100" rx="24" fill="white"/>
</clipPath>
</defs>
</svg>
